<svg width="926" height="428" viewBox="0 0 926 428" fill="none" xmlns="http://www.w3.org/2000/svg">
<path d="M926 0H0V425H926V0Z" fill="#C3E7F1"/>
<path d="M141.477 245.999C250.041 246.089 358.588 240.028 465.347 228.316C571.505 216.674 675.959 199.47 777.138 177.024C827.644 165.821 877.332 153.3 926 139.481V35C919.083 37.1168 912.166 39.2136 905.183 41.2505C818.088 66.7717 726.315 86.6614 632.32 100.94C546.896 113.91 459.834 121.848 371.854 124.823C284.09 127.789 195.425 126.72 108.363 119.092C72.2088 115.927 35.5865 111.623 0 105.363V242.315C47.0309 244.751 94.2624 245.959 141.46 245.999H141.477Z" fill="#DCF2FD"/>
<path d="M926 277H0V428H926V277Z" fill="#96B451"/>
<path d="M80.73 278.55C81.17 277.84 81.14 276.88 80.67 276.2C80.2 275.52 79.31 275.15 78.49 275.31C78.79 274.58 78.65 273.69 78.15 273.08C77.7 272.54 76.93 272.26 76.25 272.19C76.89 270.73 77.03 268.95 75.85 267.68C74.79 266.54 72.94 266.23 71.57 266.97C71.05 266.04 69.91 265.49 68.86 265.68C67.81 265.86 66.92 266.76 66.75 267.82C65.41 267.17 63.98 266.54 62.49 266.62C61 266.7 59.45 267.69 59.24 269.16C57.81 268.69 56.3 268.21 54.81 268.45C53.32 268.69 51.87 269.9 51.9 271.41C50.35 271.76 48.8 270.91 47.22 270.8C45.64 270.69 43.71 272.2 44.52 273.56C43.22 273.27 41.88 272.98 40.58 273.24C39.28 273.51 38.02 274.49 37.88 275.81C36.13 272.9 31.14 272.92 29.41 275.85C27.67 274.47 24.6 275.85 24.47 278.06C23.53 276.91 21.71 276.6 20.44 277.36C19.17 278.13 18.6 279.88 19.17 281.25C17.71 281.44 16.42 282.56 16.03 283.98C15.64 285.4 16.17 287.03 17.32 287.94C15.96 288.74 15.25 290.51 15.69 292.03C16.17 293.67 19.11 296.42 20.88 296.57C20.24 296.95 19.84 297.64 20.02 298.4C20.19 299.15 20.84 299.72 21.57 299.97C22.22 300.19 22.93 300.16 23.61 300.03C23.61 300.06 23.61 300.09 23.61 300.12C23.08 300.48 22.74 301.19 23.01 301.77C23.32 302.42 24.04 302.8 24.76 302.85C25.48 302.9 26.19 302.65 26.83 302.32C27.03 302.22 27.22 302.1 27.38 301.95C27.23 302.23 27.25 302.61 27.42 302.9C27.63 303.27 28.01 303.51 28.38 303.71C28.96 304.04 29.6 304.34 30.27 304.34C31.05 304.34 31.78 303.85 32.17 303.18C32.22 304.03 32.69 304.86 33.42 305.3C34.32 305.84 35.54 305.76 36.37 305.12C36.95 305.97 38.1 306.28 39.12 306.15C40.14 306.01 41.07 305.5 41.97 305.01C42.23 305.74 43.01 306.19 43.78 306.27C44.55 306.35 45.32 306.11 46.04 305.82C47.45 305.24 48.76 304.43 49.9 303.41C50.73 304.38 52.2 304.59 53.43 304.26C54.66 303.93 55.72 303.15 56.75 302.39C59.27 303.33 62.43 301.66 63.07 299.04C64.24 299.49 65.64 299.29 66.65 298.54C67.87 297.62 67.59 296.23 68.38 295.27C69.21 294.27 71.58 293.52 72.72 292.8C73.36 292.4 73.8 292.02 74.53 291.87C75.32 291.71 76.03 291.57 76.73 291.12C77.04 290.92 77.34 290.67 77.5 290.34C77.66 290.01 77.65 289.57 77.4 289.3C78.25 289.25 79.13 289.07 79.79 288.55C80.46 288.03 80.85 287.07 80.5 286.29C81.27 286.14 81.93 285.52 82.11 284.76C82.29 284 82 283.14 81.38 282.66C82.26 282.17 82.92 281.2 82.82 280.2C82.72 279.2 81.69 278.32 80.72 278.58L80.73 278.55ZM20.66 286.3C20.66 286.3 20.68 286.3 20.7 286.3C20.69 286.3 20.67 286.3 20.66 286.3ZM32.45 302.57C32.47 302.48 32.49 302.39 32.5 302.3C32.57 302.38 32.64 302.45 32.72 302.52L32.45 302.58V302.57Z" fill="#345D33"/>
<path d="M72.92 276.7C73.26 276.15 73.24 275.39 72.87 274.85C72.5 274.31 71.8 274.03 71.16 274.15C71.4 273.58 71.29 272.87 70.89 272.4C70.54 271.97 69.93 271.76 69.4 271.7C69.9 270.55 70.01 269.16 69.09 268.16C68.26 267.26 66.8 267.02 65.73 267.6C65.32 266.87 64.42 266.44 63.6 266.58C62.77 266.72 62.07 267.43 61.94 268.26C60.89 267.75 59.76 267.26 58.59 267.32C57.42 267.38 56.2 268.16 56.03 269.32C54.9 268.95 53.72 268.57 52.55 268.76C51.38 268.95 50.24 269.9 50.27 271.09C49.05 271.37 47.83 270.7 46.59 270.61C45.35 270.52 43.83 271.71 44.47 272.78C43.45 272.55 42.39 272.32 41.37 272.53C40.35 272.74 39.36 273.51 39.25 274.55C37.87 272.26 33.95 272.28 32.59 274.58C31.22 273.5 28.81 274.58 28.71 276.32C27.97 275.42 26.54 275.17 25.54 275.77C24.54 276.37 24.09 277.75 24.55 278.83C23.4 278.98 22.39 279.86 22.08 280.98C21.77 282.09 22.19 283.37 23.09 284.09C22.02 284.72 21.46 286.11 21.81 287.3C22.19 288.59 24.5 290.75 25.89 290.87C25.38 291.17 25.07 291.71 25.21 292.31C25.35 292.9 25.86 293.35 26.43 293.54C26.94 293.71 27.5 293.69 28.03 293.59C28.03 293.61 28.03 293.63 28.03 293.66C27.61 293.94 27.35 294.5 27.56 294.95C27.8 295.46 28.37 295.76 28.94 295.8C29.5 295.84 30.06 295.64 30.56 295.39C30.71 295.31 30.87 295.22 30.99 295.1C30.87 295.32 30.89 295.62 31.02 295.85C31.19 296.14 31.48 296.33 31.78 296.49C32.24 296.75 32.74 296.98 33.26 296.98C33.88 296.98 34.44 296.6 34.76 296.07C34.8 296.74 35.17 297.39 35.74 297.74C36.44 298.16 37.41 298.1 38.06 297.6C38.51 298.27 39.42 298.52 40.22 298.41C41.02 298.3 41.75 297.9 42.46 297.51C42.67 298.08 43.28 298.44 43.88 298.5C44.49 298.56 45.09 298.38 45.65 298.15C46.76 297.7 47.79 297.05 48.69 296.26C49.34 297.02 50.5 297.19 51.47 296.93C52.44 296.67 53.27 296.06 54.08 295.46C56.06 296.2 58.55 294.88 59.05 292.83C59.97 293.18 61.07 293.03 61.86 292.43C62.82 291.71 62.6 290.62 63.22 289.86C63.87 289.07 65.74 288.48 66.63 287.92C67.13 287.6 67.48 287.31 68.05 287.19C68.67 287.06 69.23 286.95 69.78 286.6C70.02 286.44 70.26 286.25 70.38 285.98C70.51 285.72 70.5 285.37 70.3 285.16C70.97 285.12 71.66 284.98 72.18 284.57C72.71 284.16 73.01 283.41 72.74 282.8C73.35 282.69 73.86 282.19 74.01 281.6C74.15 281 73.92 280.33 73.43 279.95C74.12 279.56 74.64 278.8 74.56 278.01C74.48 277.22 73.67 276.53 72.91 276.74L72.92 276.7ZM25.71 282.79C25.71 282.79 25.73 282.79 25.74 282.79C25.73 282.79 25.72 282.79 25.71 282.79ZM34.97 295.57C34.99 295.5 35 295.43 35.01 295.36C35.06 295.42 35.12 295.48 35.19 295.53L34.97 295.57Z" fill="#3F6C3D"/>
<path d="M56.83 261.2C58.26 259.96 58.86 257.84 58.3 256.03C57.74 254.22 56.04 252.82 54.15 252.61C55.3 251.22 55.61 249.18 54.92 247.51C54.23 245.84 52.58 244.61 50.78 244.43C51.3 242.46 50.5 240.2 48.85 239C46.93 237.59 45.24 238.4 43.27 238.47C45.15 235.25 44.83 231.47 42.26 228.63C42.09 228.44 41.88 228.16 41.65 227.82C42.03 226.82 42.02 225.54 41.82 224.46C41.69 223.79 41.51 223.09 41.07 222.57C40.37 221.73 39.29 221.6 38.18 221.77C38.01 221.45 37.85 221.13 37.68 220.81C38.72 219.24 38.47 216.84 37.21 215.33C36.38 214.34 35.27 213.69 34.05 213.24C33.97 213.07 35.15 212.36 34.93 210.31C34.74 208.55 33.68 206.81 31.94 206.49C34.21 204.88 35.34 201.65 34.18 199.12C33.02 196.59 29.41 195.41 27.18 197.07C28.09 195.62 28.37 193.8 27.92 192.15C27.55 190.77 26.21 189.37 24.89 189.91C26.29 188.62 25.93 186.06 24.4 184.92C23.36 184.14 21.42 183.85 20.25 184.41C20.25 184.35 20.25 184.29 20.27 184.24L20.04 183.8C19.98 182.7 20.55 181.64 20.06 180.55C19.82 180.01 18.24 178.28 17.48 178.84C18.83 177.86 18.32 175.45 16.81 174.74C15.3 174.03 13.41 174.79 12.38 176.1C13.51 174.57 12.82 172.06 11.07 171.32C9.32 170.58 7.03 171.84 6.73 173.71C7.38 171.14 6.55 168.2 4.54 166.47C3.3 165.4 1.63 164.86 0 164.93V297.89C1.8 297.02 3.37 295.71 4.41 293.97C6.67 295.74 9.85 296.26 12.56 295.29C15.85 294.11 16.18 290.89 18.56 289.33C21.05 287.7 26.74 287.68 29.72 286.88C31.39 286.44 32.6 285.9 34.3 286.07C36.14 286.25 37.78 286.42 39.6 285.92C40.42 285.69 41.23 285.35 41.81 284.73C42.39 284.11 42.66 283.15 42.3 282.39C44.19 282.85 46.22 283.07 48.04 282.38C49.86 281.69 51.35 279.87 51.12 277.94C52.9 278.15 54.76 277.23 55.68 275.69C56.6 274.15 56.53 272.08 55.5 270.61C57.75 270.13 59.84 268.46 60.31 266.21C60.77 263.96 59.12 261.34 56.82 261.24L56.83 261.2Z" fill="#3F6C3D"/>
<path d="M57.13 257.83C58.44 256.69 58.99 254.76 58.47 253.1C57.95 251.44 56.4 250.16 54.68 249.97C55.73 248.7 56.02 246.83 55.39 245.31C54.76 243.78 53.25 242.66 51.61 242.49C52.08 240.68 51.35 238.63 49.84 237.52C48.08 236.23 46.54 236.97 44.74 237.03C46.46 234.08 46.16 230.63 43.81 228.03C43.65 227.86 43.46 227.6 43.25 227.29C43.6 226.38 43.59 225.21 43.4 224.22C43.28 223.6 43.12 222.97 42.72 222.49C42.08 221.73 41.1 221.6 40.08 221.76C39.93 221.47 39.78 221.18 39.63 220.88C40.58 219.45 40.35 217.25 39.2 215.87C38.44 214.96 37.43 214.37 36.31 213.96C36.24 213.8 37.31 213.16 37.11 211.28C36.94 209.67 35.97 208.08 34.38 207.78C36.46 206.31 37.49 203.36 36.43 201.04C35.37 198.73 32.07 197.65 30.03 199.17C30.86 197.85 31.11 196.18 30.71 194.67C30.37 193.41 29.15 192.13 27.94 192.62C29.22 191.44 28.89 189.1 27.49 188.06C26.54 187.35 24.76 187.08 23.7 187.6C23.7 187.55 23.7 187.49 23.71 187.44L23.5 187.04C23.45 186.03 23.96 185.06 23.52 184.06C23.3 183.56 21.85 181.99 21.16 182.49C22.39 181.59 21.93 179.39 20.55 178.75C19.17 178.1 17.44 178.79 16.5 179.99C17.53 178.59 16.91 176.29 15.31 175.62C13.71 174.94 11.62 176.09 11.34 177.81C11.93 175.46 11.17 172.78 9.33 171.19C7.49 169.61 4.63 169.29 2.55 170.54C1.52 171.16 0.9 171.96 0.54 172.87C0.02 174.2 0.07 175.74 0.29 177.26C0.19 177.23 0.09 177.2 0 177.16V292.42C3.61 292.55 7.34 290.88 9.21 287.76C11.27 289.38 14.19 289.86 16.66 288.97C19.67 287.89 19.97 284.94 22.15 283.52C24.43 282.03 29.63 282.01 32.35 281.28C33.88 280.87 34.99 280.39 36.53 280.54C38.21 280.71 39.71 280.86 41.38 280.4C42.13 280.19 42.87 279.88 43.4 279.31C43.93 278.74 44.18 277.87 43.85 277.17C45.58 277.59 47.43 277.79 49.09 277.16C50.75 276.53 52.12 274.86 51.91 273.1C53.54 273.29 55.24 272.45 56.08 271.04C56.92 269.63 56.86 267.74 55.92 266.39C57.97 265.95 59.89 264.42 60.31 262.37C60.73 260.31 59.22 257.92 57.12 257.83H57.13Z" fill="#4C894A"/>
<path d="M41.95 287.79C42.7 287.14 43.01 286.04 42.71 285.1C42.42 284.16 41.53 283.43 40.55 283.32C41.15 282.59 41.31 281.53 40.95 280.66C40.59 279.79 39.73 279.15 38.79 279.05C39.06 278.02 38.64 276.85 37.78 276.22C36.78 275.49 35.9 275.91 34.87 275.94C35.85 274.26 35.68 272.29 34.34 270.81C34.25 270.71 34.14 270.57 34.02 270.39C34.22 269.87 34.22 269.2 34.11 268.64C34.04 268.29 33.95 267.93 33.72 267.65C33.35 267.21 32.79 267.14 32.21 267.23C32.12 267.06 32.04 266.9 31.95 266.73C32.49 265.91 32.36 264.66 31.71 263.88C31.28 263.36 30.7 263.02 30.07 262.79C30.03 262.7 30.64 262.33 30.53 261.26C30.43 260.34 29.88 259.44 28.97 259.27C30.15 258.43 30.74 256.75 30.14 255.43C29.53 254.11 27.66 253.5 26.49 254.36C26.96 253.61 27.11 252.65 26.88 251.8C26.69 251.08 25.99 250.35 25.3 250.63C26.03 249.96 25.84 248.62 25.04 248.03C24.5 247.63 23.49 247.47 22.88 247.77C22.88 247.74 22.88 247.71 22.88 247.68L22.76 247.45C22.73 246.88 23.02 246.32 22.76 245.76C22.63 245.48 21.81 244.58 21.41 244.87C22.11 244.36 21.85 243.1 21.06 242.74C20.27 242.37 19.29 242.76 18.75 243.45C19.34 242.65 18.98 241.34 18.07 240.96C17.16 240.57 15.97 241.23 15.81 242.21C16.15 240.87 15.72 239.34 14.67 238.44C13.62 237.54 11.99 237.35 10.81 238.07C10.22 238.42 9.87001 238.88 9.66001 239.4C9.36001 240.16 9.39001 241.04 9.52001 241.9C8.56001 241.66 8.42001 240.34 7.24001 240.47C6.26001 240.57 5.51001 241.66 5.76001 242.62C5.36001 241.99 4.52001 241.68 3.80001 241.9C3.08001 242.12 2.56001 242.85 2.58001 243.6C2.12001 243.09 1.27001 243.19 0.690012 243.55C0.390012 243.74 0.160012 243.99 -0.0499878 244.28V306.96C0.530012 307.22 1.16001 307.37 1.79001 307.39C3.31001 307.45 4.79001 306.94 6.22001 306.44C8.76001 308.4 12.94 307.62 14.6 304.86C15.78 305.78 17.44 306.05 18.84 305.55C20.56 304.94 20.72 303.26 21.97 302.45C23.27 301.6 26.23 301.59 27.78 301.18C28.65 300.95 29.28 300.67 30.16 300.76C31.12 300.86 31.97 300.94 32.92 300.68C33.35 300.56 33.77 300.38 34.07 300.06C34.37 299.74 34.52 299.24 34.32 298.84C35.3 299.08 36.36 299.19 37.31 298.84C38.26 298.48 39.04 297.53 38.91 296.53C39.84 296.64 40.81 296.16 41.29 295.36C41.77 294.56 41.73 293.48 41.2 292.71C42.37 292.46 43.46 291.59 43.7 290.42C43.94 289.25 43.08 287.89 41.88 287.83L41.95 287.79Z" fill="#345D33"/>
<path d="M28.47 252.65C29 253.48 30.05 253.96 31.02 253.8C32 253.65 32.85 252.88 33.1 251.93C33.73 252.63 34.76 252.95 35.67 252.72C36.58 252.49 37.35 251.74 37.58 250.83C38.56 251.25 39.78 251.01 40.53 250.25C41.4 249.37 41.12 248.44 41.24 247.42C42.76 248.64 44.73 248.76 46.39 247.66C46.5 247.59 46.66 247.5 46.85 247.41C47.34 247.69 47.99 247.78 48.57 247.75C48.93 247.74 49.3 247.7 49.6 247.51C50.09 247.21 50.24 246.67 50.23 246.08C50.41 246.02 50.58 245.96 50.76 245.9C51.49 246.56 52.74 246.61 53.62 246.08C54.19 245.73 54.62 245.21 54.94 244.61C55.03 244.58 55.31 245.24 56.38 245.29C57.3 245.33 58.28 244.92 58.58 244.05C59.24 245.34 60.81 246.18 62.2 245.77C63.59 245.37 64.48 243.6 63.79 242.32C64.46 242.9 65.39 243.18 66.27 243.08C67.01 243 67.83 242.41 67.66 241.69C68.22 242.51 69.56 242.52 70.27 241.82C70.75 241.34 71.05 240.37 70.85 239.72C70.88 239.72 70.91 239.73 70.94 239.74L71.18 239.66C71.75 239.72 72.25 240.09 72.85 239.92C73.15 239.84 74.16 239.16 73.93 238.72C74.33 239.49 75.61 239.42 76.09 238.69C76.57 237.97 76.33 236.93 75.73 236.3C76.43 237 77.78 236.84 78.3 236C78.82 235.15 78.34 233.88 77.4 233.58C78.68 234.11 80.25 233.91 81.3 233.01C82.35 232.11 82.77 230.52 82.24 229.24C81.98 228.61 81.58 228.19 81.1 227.91C80.4 227.5 79.52 227.4 78.65 227.4C79.03 226.49 80.36 226.54 80.41 225.36C80.45 224.37 79.49 223.47 78.5 223.58C79.18 223.28 79.62 222.49 79.51 221.75C79.4 221.01 78.75 220.38 78.01 220.29C78.58 219.91 78.61 219.05 78.33 218.43C77.93 217.5 76.98 216.84 75.97 216.77C76.37 215.92 76.37 214.85 75.79 214.11C75.23 213.39 74.15 213.17 73.37 213.66C73.96 213.19 74.73 212.85 74.81 212C74.87 211.33 74.5 210.67 73.94 210.3C73.45 209.97 72.83 209.85 72.24 209.89C72.98 209.78 73.66 209.17 73.74 208.43C73.85 207.34 72.55 206.73 71.71 206.41C74.01 207.26 76.12 204 75.14 201.76C74.16 199.51 71.55 198.49 69.13 198.11C69.08 196.25 68.49 195.45 67.19 195.06C65.57 194.58 64.68 195.54 64.54 196.72C63.83 196.06 63.6 195.13 62.37 195.25C62.69 195.22 62.92 194.9 62.97 194.58C63.01 194.26 62.92 193.94 62.82 193.63C62.6 192.94 62.36 192.21 61.8 191.75C61.24 191.29 60.25 191.29 59.91 191.93C60.23 190.6 59.5 189.09 58.25 188.53C57.46 188.17 56.53 188.22 55.75 188.58C55.75 188.33 55.7 188.09 55.57 187.88C55.27 187.41 54.63 187.17 54.09 187.34C54.98 186.62 55.09 185.12 54.32 184.28C53.63 183.53 52.36 183.44 51.53 184.02C51.5 183.99 51.46 183.97 51.43 183.94C51.69 183.32 51.5 182.52 50.97 182.08C50.35 181.56 49.4 181.55 48.71 181.96C49.53 181.16 49.25 179.55 48.2 179.07C47.2 178.62 46.2 179.34 45.73 180.21C45.32 179.84 45.37 179.09 45.01 178.61C44.52 177.97 43.72 177.54 42.92 177.49C41.74 177.42 40.56 178.16 40.11 179.25C40.25 178.35 39.52 177.45 38.62 177.25C37.73 177.05 36.77 177.45 36.14 178.1C35.57 178.69 35.23 179.46 35.02 180.26C34.99 180.25 34.96 180.23 34.93 180.22C34.82 179.46 34.23 178.73 33.48 178.73C32.62 178.73 31.84 179.3 31.42 180.05C31 180.8 30.89 181.68 30.92 182.54C30.92 182.8 30.95 183.07 31.03 183.32C30.81 183.01 30.38 182.84 29.99 182.87C29.48 182.91 29.03 183.19 28.62 183.48C27.96 183.94 27.32 184.46 26.97 185.18C26.57 186.02 26.71 187.05 27.22 187.82C26.28 187.43 25.15 187.51 24.3 188.06C23.26 188.74 22.7 190.1 22.97 191.31C21.76 191.49 20.83 192.56 20.45 193.72C20.07 194.89 20.13 196.14 20.2 197.37C19.28 197.28 18.4 197.87 17.91 198.66C17.43 199.45 17.28 200.39 17.22 201.31C17.11 203.12 17.31 204.95 17.8 206.7C16.33 207.09 15.35 208.55 15.06 210.05C14.78 211.54 15.06 213.08 15.34 214.57C13.02 216.79 13.18 221.05 15.66 223.09C14.57 224.12 14.06 225.72 14.35 227.19C14.7 228.98 16.34 229.39 16.96 230.74C17.61 232.15 17.18 235.08 17.36 236.68C17.46 237.58 17.64 238.24 17.42 239.1C17.18 240.03 16.97 240.87 17.09 241.84C17.14 242.28 17.26 242.73 17.53 243.07C17.81 243.41 18.28 243.63 18.7 243.5C18.32 244.44 18.05 245.47 18.26 246.46C18.47 247.45 19.3 248.36 20.31 248.39C20.07 249.29 20.4 250.32 21.12 250.91C21.84 251.5 22.92 251.63 23.75 251.21C23.83 252.41 24.52 253.61 25.65 254.03C26.77 254.44 28.25 253.79 28.48 252.62L28.47 252.65ZM51.28 184.22C51.28 184.22 51.25 184.25 51.24 184.26C51.25 184.25 51.26 184.23 51.27 184.22H51.28ZM27.73 188.43C27.81 188.5 27.9 188.57 28 188.63C27.88 188.66 27.77 188.71 27.65 188.76L27.73 188.44V188.43Z" fill="#345D33"/>
<path d="M41.34 279.62C41.96 279.08 42.23 278.15 41.98 277.36C41.73 276.57 40.99 275.96 40.17 275.87C40.67 275.26 40.81 274.37 40.51 273.64C40.21 272.91 39.49 272.37 38.7 272.3C38.93 271.44 38.58 270.46 37.86 269.93C37.02 269.32 36.29 269.67 35.43 269.7C36.25 268.29 36.11 266.65 34.99 265.41C34.92 265.33 34.82 265.2 34.72 265.06C34.89 264.62 34.88 264.07 34.79 263.59C34.73 263.3 34.66 262.99 34.46 262.76C34.15 262.4 33.69 262.34 33.2 262.41C33.13 262.27 33.06 262.13 32.98 261.99C33.43 261.31 33.33 260.26 32.78 259.6C32.42 259.17 31.93 258.88 31.4 258.69C31.37 258.62 31.88 258.31 31.78 257.41C31.7 256.64 31.23 255.88 30.48 255.74C31.47 255.04 31.96 253.63 31.46 252.53C30.95 251.43 29.38 250.91 28.41 251.64C28.81 251.01 28.93 250.21 28.73 249.49C28.57 248.89 27.98 248.28 27.41 248.51C28.02 247.95 27.86 246.83 27.2 246.33C26.75 245.99 25.9 245.86 25.39 246.11C25.39 246.09 25.39 246.06 25.39 246.03L25.29 245.84C25.27 245.36 25.51 244.9 25.29 244.42C25.18 244.18 24.5 243.43 24.16 243.67C24.75 243.24 24.53 242.19 23.87 241.88C23.21 241.57 22.39 241.9 21.94 242.47C22.43 241.8 22.13 240.71 21.37 240.38C20.61 240.06 19.61 240.61 19.48 241.42C19.76 240.3 19.4 239.02 18.52 238.26C17.64 237.51 16.28 237.35 15.29 237.95C14.8 238.25 14.5 238.63 14.33 239.06C14.08 239.69 14.11 240.43 14.21 241.15C13.41 240.94 13.29 239.84 12.3 239.95C11.48 240.04 10.85 240.95 11.06 241.75C10.72 241.22 10.02 240.96 9.42004 241.14C8.82004 241.32 8.38004 241.93 8.40004 242.56C8.01004 242.14 7.30004 242.22 6.82004 242.52C6.10004 242.97 5.67004 243.84 5.74004 244.68C4.99004 244.45 4.10004 244.59 3.56004 245.16C3.03004 245.72 2.99004 246.63 3.49004 247.22C3.03004 246.79 2.65004 246.19 1.94004 246.23C1.38004 246.26 0.880041 246.66 0.640041 247.16C0.430041 247.61 0.400041 248.13 0.510041 248.62C0.420041 248.32 0.230042 248.05 -0.0199585 247.86V295.27C0.0700415 295.27 0.150041 295.27 0.240041 295.26C1.75004 295.13 3.24004 294.74 4.63004 294.11C5.14004 295.28 6.47004 295.91 7.74004 295.96C9.01004 296.01 10.25 295.58 11.45 295.16C13.57 296.8 17.08 296.14 18.46 293.84C19.44 294.61 20.83 294.84 22.01 294.42C23.45 293.91 23.59 292.5 24.63 291.82C25.72 291.11 28.2 291.1 29.5 290.75C30.23 290.56 30.76 290.32 31.5 290.4C32.3 290.48 33.02 290.55 33.81 290.33C34.17 290.23 34.52 290.08 34.77 289.81C35.02 289.54 35.14 289.12 34.98 288.79C35.8 288.99 36.69 289.09 37.48 288.79C38.27 288.49 38.92 287.69 38.82 286.85C39.6 286.94 40.41 286.54 40.81 285.87C41.21 285.2 41.18 284.29 40.73 283.65C41.71 283.44 42.62 282.71 42.83 281.73C43.03 280.75 42.31 279.61 41.31 279.56L41.34 279.62Z" fill="#4C894A"/>
<path d="M77.74 258.86C78.49 258.21 78.8 257.11 78.5 256.17C78.21 255.23 77.32 254.5 76.34 254.39C76.94 253.66 77.1 252.6 76.74 251.73C76.38 250.86 75.52 250.22 74.58 250.12C74.85 249.09 74.43 247.92 73.57 247.29C72.57 246.56 71.69 246.98 70.66 247.01C71.64 245.33 71.47 243.36 70.13 241.88C70.04 241.78 69.93 241.64 69.81 241.46C70.01 240.94 70.01 240.27 69.9 239.71C69.83 239.36 69.74 239 69.51 238.72C69.14 238.28 68.58 238.21 68 238.3C67.91 238.13 67.83 237.97 67.74 237.8C68.28 236.98 68.15 235.73 67.5 234.95C67.07 234.43 66.49 234.09 65.86 233.86C65.82 233.77 66.43 233.4 66.32 232.33C66.22 231.41 65.67 230.51 64.76 230.34C65.94 229.5 66.53 227.82 65.93 226.5C65.32 225.18 63.45 224.57 62.28 225.43C62.75 224.68 62.9 223.72 62.67 222.87C62.48 222.15 61.78 221.42 61.09 221.7C61.82 221.03 61.63 219.69 60.83 219.1C60.29 218.7 59.28 218.54 58.67 218.84C58.67 218.81 58.67 218.78 58.67 218.75L58.55 218.52C58.52 217.95 58.81 217.39 58.55 216.83C58.42 216.55 57.6 215.65 57.2 215.94C57.9 215.43 57.64 214.17 56.85 213.81C56.06 213.44 55.08 213.83 54.54 214.52C55.13 213.72 54.77 212.41 53.86 212.03C52.95 211.64 51.76 212.3 51.6 213.28C51.94 211.94 51.51 210.41 50.46 209.51C49.41 208.61 47.78 208.42 46.6 209.14C46.01 209.49 45.66 209.95 45.45 210.47C45.15 211.23 45.18 212.11 45.31 212.97C44.35 212.72 44.21 211.41 43.03 211.54C42.05 211.64 41.3 212.73 41.55 213.69C41.15 213.06 40.31 212.75 39.59 212.97C38.87 213.19 38.35 213.92 38.37 214.67C37.91 214.16 37.06 214.26 36.48 214.62C35.62 215.16 35.11 216.19 35.19 217.2C34.29 216.93 33.23 217.09 32.59 217.77C31.96 218.43 31.91 219.53 32.5 220.23C31.95 219.72 31.5 219.01 30.65 219.05C29.98 219.09 29.38 219.56 29.1 220.16C28.85 220.7 28.82 221.32 28.95 221.91C28.73 221.19 28.03 220.61 27.28 220.65C26.18 220.7 25.77 222.08 25.59 222.95C26.09 220.55 22.56 218.95 20.48 220.25C18.4 221.55 17.78 224.29 17.76 226.74C15.93 227.07 15.22 227.77 15.03 229.1C14.79 230.78 15.88 231.51 17.06 231.47C16.51 232.26 15.63 232.63 15.93 233.84C15.85 233.53 15.5 233.34 15.18 233.35C14.86 233.35 14.55 233.5 14.27 233.64C13.62 233.96 12.93 234.31 12.57 234.93C12.2 235.55 12.34 236.53 13.02 236.78C11.66 236.66 10.28 237.61 9.90001 238.92C9.66001 239.75 9.85001 240.66 10.32 241.38C10.08 241.42 9.84001 241.5 9.65001 241.67C9.23001 242.04 9.09001 242.7 9.33001 243.21C8.49001 242.43 6.99001 242.55 6.27001 243.44C5.63001 244.24 5.73001 245.51 6.43001 246.24C6.41001 246.28 6.39001 246.32 6.37001 246.35C5.72001 246.18 4.96001 246.49 4.60001 247.08C4.18001 247.77 4.31001 248.71 4.81001 249.33C3.89001 248.63 2.34001 249.15 2.03001 250.26C1.73001 251.32 2.59001 252.2 3.52001 252.54C3.21001 253 2.47001 253.06 2.05001 253.49C1.49001 254.07 1.18001 254.92 1.25001 255.72C1.36001 256.89 2.26001 257.95 3.41001 258.24C2.50001 258.24 1.72001 259.09 1.65001 260C1.58001 260.91 2.12001 261.8 2.86001 262.33C3.53001 262.81 4.34001 263.03 5.16001 263.12C5.16001 263.15 5.14001 263.19 5.14001 263.22C4.41001 263.44 3.77001 264.13 3.88001 264.88C4.00001 265.73 4.69001 266.42 5.49001 266.73C6.29001 267.04 7.18001 267.01 8.03001 266.86C8.29001 266.81 8.55001 266.75 8.78001 266.63C8.51001 266.89 8.40001 267.34 8.49001 267.72C8.60001 268.21 8.95001 268.62 9.30001 268.99C9.85001 269.57 10.46 270.13 11.23 270.37C12.12 270.65 13.11 270.35 13.8 269.73C13.55 270.71 13.8 271.82 14.47 272.58C15.3 273.51 16.72 273.86 17.89 273.41C18.24 274.58 19.44 275.34 20.65 275.55C21.86 275.75 23.09 275.5 24.3 275.26C24.34 276.18 25.06 276.97 25.91 277.33C26.76 277.69 27.72 277.7 28.64 277.62C30.45 277.46 32.23 277 33.88 276.25C34.48 277.65 36.08 278.4 37.6 278.46C39.12 278.52 40.6 278.01 42.03 277.51C44.57 279.47 48.75 278.69 50.41 275.93C51.59 276.85 53.25 277.12 54.65 276.62C56.37 276.01 56.53 274.33 57.78 273.52C59.08 272.67 62.04 272.66 63.59 272.25C64.46 272.02 65.09 271.74 65.97 271.83C66.93 271.93 67.78 272.01 68.73 271.75C69.16 271.63 69.58 271.45 69.88 271.13C70.18 270.81 70.33 270.31 70.13 269.91C71.11 270.15 72.17 270.26 73.12 269.91C74.07 269.55 74.84 268.6 74.72 267.6C75.65 267.71 76.62 267.23 77.1 266.43C77.58 265.63 77.54 264.55 77.01 263.78C78.18 263.53 79.27 262.66 79.51 261.49C79.75 260.32 78.89 258.96 77.69 258.9L77.74 258.86ZM14.34 269.1C14.4 269.01 14.45 268.91 14.5 268.81C14.55 268.92 14.61 269.03 14.68 269.14L14.35 269.11L14.34 269.1Z" fill="#5A9856"/>
<path d="M6.69 246.43H6.7C6.7 246.43 6.72 246.44 6.74 246.45C6.73 246.45 6.71 246.44 6.69 246.43Z" fill="#5A9856"/>
<path d="M74.45 250.24C75.11 249.66 75.39 248.66 75.13 247.81C74.87 246.96 74.09 246.3 73.22 246.2C73.75 245.55 73.89 244.59 73.58 243.8C73.3 243.1 72.6 242.57 71.95 242.28C73.05 240.98 73.74 239.21 72.96 237.53C72.26 236.02 70.49 235.11 68.88 235.44C68.65 234.32 67.67 233.39 66.55 233.25C65.43 233.1 64.26 233.74 63.75 234.77C62.61 233.67 61.36 232.58 59.84 232.18C58.32 231.78 56.45 232.31 55.77 233.75C54.47 232.81 53.11 231.84 51.54 231.61C49.96 231.38 48.13 232.16 47.69 233.72C46.02 233.59 44.73 232.22 43.17 231.6C41.61 230.98 39.2 231.91 39.59 233.57C38.37 232.86 37.11 232.13 35.72 231.99C34.33 231.85 32.75 232.45 32.2 233.76C31.35 230.22 26.32 228.65 23.66 231.1C22.34 229.13 18.82 229.56 18 231.79C17.41 230.31 15.68 229.41 14.16 229.79C12.64 230.17 11.52 231.79 11.67 233.38C10.14 233.11 8.48999 233.85 7.64999 235.18C6.80999 236.51 6.83999 238.35 7.70999 239.65C6.08999 240.04 4.81999 241.63 4.78999 243.33C4.75999 245.17 6.85999 248.92 8.59999 249.64C7.82999 249.83 7.21999 250.41 7.15999 251.25C7.09999 252.07 7.56999 252.87 8.22999 253.35C8.81999 253.78 9.53999 253.98 10.26 254.07C10.26 254.1 10.24 254.13 10.24 254.16C9.58999 254.36 9.02999 254.98 9.11999 255.66C9.21999 256.43 9.83999 257.05 10.54 257.33C11.24 257.61 12.04 257.58 12.78 257.45C13.01 257.41 13.24 257.35 13.45 257.25C13.21 257.49 13.12 257.89 13.19 258.24C13.29 258.69 13.6 259.05 13.9 259.38C14.39 259.9 14.93 260.41 15.6 260.63C16.39 260.88 17.27 260.61 17.88 260.05C17.66 260.94 17.88 261.94 18.48 262.62C19.21 263.46 20.47 263.77 21.5 263.37C21.81 264.43 22.87 265.12 23.94 265.3C25.01 265.48 26.1 265.26 27.17 265.03C27.21 265.86 27.85 266.57 28.6 266.9C29.35 267.23 30.2 267.23 31.01 267.16C32.61 267.02 34.19 266.6 35.65 265.92C36.18 267.18 37.59 267.86 38.94 267.91C40.29 267.96 41.59 267.51 42.86 267.05C45.11 268.82 48.81 268.11 50.27 265.63C51.31 266.46 52.78 266.71 54.03 266.25C55.55 265.7 55.7 264.18 56.8 263.45C57.95 262.69 60.57 262.67 61.95 262.3C62.72 262.09 63.28 261.84 64.06 261.92C64.91 262.01 65.66 262.09 66.51 261.85C66.89 261.74 67.26 261.58 67.53 261.29C67.8 261 67.92 260.55 67.75 260.19C68.62 260.4 69.56 260.51 70.39 260.19C71.23 259.87 71.92 259.01 71.81 258.1C72.63 258.2 73.49 257.77 73.91 257.04C74.33 256.32 74.3 255.34 73.83 254.65C74.87 254.42 75.83 253.64 76.05 252.58C76.26 251.52 75.5 250.29 74.44 250.25L74.45 250.24ZM11.57 239.03C11.57 239.03 11.59 239.03 11.6 239.05C11.59 239.05 11.57 239.04 11.56 239.03H11.57ZM18.34 259.48C18.39 259.39 18.44 259.31 18.48 259.22C18.52 259.32 18.58 259.42 18.64 259.51L18.35 259.48H18.34Z" fill="#77B45D"/>
<path d="M53.74 207.68C53.52 206.9 53.11 206.35 52.59 205.96C51.82 205.38 50.81 205.15 49.79 205.02C50.37 204 51.91 204.25 52.14 202.87C52.33 201.72 51.32 200.52 50.15 200.51C50.99 200.25 51.61 199.39 51.59 198.5C51.56 197.62 50.9 196.79 50.04 196.58C50.76 196.21 50.92 195.21 50.68 194.44C50.33 193.28 49.34 192.49 48.22 192.14C48.79 190.5 50.17 189.5 50.67 188.01C51.03 186.93 50.23 185.48 49.1 185.58C50.24 185.38 51.05 184.08 50.71 182.97C50.42 182.01 49.33 181.41 48.36 181.56C49.24 181.16 49.67 179.97 49.73 178.94C49.75 178.52 49.73 178.05 49.44 177.74C49.18 177.46 48.76 177.38 48.37 177.34C45.8 177.05 46.81 177.26 45.96 175.53C45.51 174.61 45.74 174.1 44.53 173.62C43.36 173.16 41.78 173.61 41.14 174.71C41.7 173.44 40.98 171.77 39.68 171.31C38.37 170.85 36.76 171.69 36.41 173.03C36.61 171.47 35.25 169.89 33.68 169.85C32.1 169.82 30.68 171.34 30.82 172.91C31.07 170.13 28.17 167.54 25.44 168.12C26.53 165.96 25.97 163.1 24.15 161.51C22.33 159.92 19.41 159.76 17.43 161.14C16.42 159.91 14.55 159.47 13.11 160.14C11.66 160.81 10.78 162.51 11.07 164.08C9.7 163.03 7.7 162.87 6.17 163.69C4.65 164.51 3.68 166.27 3.8 167.99C3.24 166.59 1.47 166.2 0 166.67V227.11C0.67 227.08 1.33 226.87 1.85 226.45C3 225.54 2.79 224.41 3.08 223.23C4.69 224.87 6.98 225.29 9.09 224.23C9.23 224.16 9.43 224.08 9.67 224C10.2 224.39 10.96 224.59 11.64 224.65C12.06 224.68 12.5 224.69 12.88 224.51C13.49 224.23 13.75 223.61 13.82 222.92C14.03 222.87 14.25 222.83 14.47 222.78C15.23 223.65 16.7 223.9 17.8 223.39C18.52 223.06 19.09 222.51 19.55 221.86C19.66 221.84 19.89 222.65 21.15 222.86C22.22 223.04 23.43 222.69 23.91 221.71C24.5 223.32 26.23 224.52 27.92 224.24C29.61 223.96 30.9 222.01 30.27 220.42C30.98 221.2 32.02 221.66 33.07 221.66C33.95 221.66 35 221.1 34.89 220.23C35.43 221.27 37.01 221.47 37.93 220.75C38.56 220.26 39.05 219.15 38.9 218.37C38.93 218.38 38.97 218.39 39 218.41L39.3 218.35C39.96 218.5 40.5 219 41.23 218.89C41.59 218.83 42.87 218.18 42.67 217.64C43.03 218.6 44.55 218.69 45.21 217.91C45.87 217.13 45.74 215.88 45.12 215.06C45.84 215.98 47.45 215.98 48.17 215.06C48.89 214.14 48.52 212.58 47.46 212.09C48.88 212.89 50.76 212.88 52.11 211.96C53.46 211.05 54.18 209.24 53.74 207.67V207.68Z" fill="#508D48"/>
<path d="M23.72 150.53C23.72 150.53 23.69 150.55 23.67 150.56C23.68 150.55 23.69 150.53 23.71 150.51V150.53H23.72Z" fill="#508D48"/>
<path d="M32.93 189.27C32.78 188.75 32.51 188.38 32.16 188.12C31.64 187.73 30.96 187.57 30.28 187.49C30.67 186.81 31.7 186.97 31.86 186.05C31.99 185.28 31.31 184.47 30.53 184.46C31.1 184.29 31.51 183.71 31.49 183.11C31.47 182.52 31.02 181.96 30.45 181.82C30.93 181.57 31.04 180.9 30.88 180.38C30.65 179.6 29.98 179.07 29.23 178.83C29.61 177.73 30.54 177.06 30.87 176.05C31.11 175.32 30.58 174.35 29.81 174.42C30.58 174.29 31.12 173.41 30.89 172.67C30.69 172.03 29.96 171.62 29.31 171.73C29.9 171.46 30.19 170.66 30.23 169.97C30.25 169.69 30.23 169.37 30.04 169.17C29.86 168.98 29.58 168.93 29.32 168.9C27.59 168.71 28.27 168.85 27.7 167.69C27.4 167.07 27.55 166.73 26.74 166.41C25.96 166.1 24.9 166.41 24.47 167.14C24.85 166.29 24.37 165.17 23.49 164.86C22.61 164.55 21.53 165.12 21.29 166.02C21.43 164.97 20.51 163.91 19.46 163.89C18.4 163.87 17.45 164.89 17.54 165.95C17.71 164.08 15.76 162.35 13.92 162.73C14.65 161.28 14.28 159.36 13.05 158.29C11.83 157.22 9.87 157.12 8.54 158.04C7.86 157.21 6.61 156.92 5.64 157.37C4.67 157.82 4.08 158.96 4.27 160.02C3.35 159.31 2.01 159.21 0.98 159.76C0.59 159.97 0.26 160.27 0 160.62V200.51C0.91 200.92 1.95 200.92 2.94 200.42C3.03 200.37 3.17 200.32 3.33 200.26C3.69 200.52 4.2 200.66 4.65 200.69C4.93 200.71 5.23 200.72 5.49 200.6C5.9 200.41 6.07 200 6.12 199.54C6.26 199.51 6.41 199.48 6.56 199.45C7.07 200.04 8.05 200.2 8.79 199.86C9.28 199.64 9.66 199.27 9.97 198.83C10.05 198.82 10.2 199.36 11.04 199.5C11.76 199.62 12.57 199.38 12.89 198.73C13.29 199.81 14.45 200.62 15.58 200.43C16.72 200.24 17.58 198.94 17.16 197.86C17.64 198.38 18.34 198.69 19.04 198.69C19.63 198.69 20.33 198.31 20.27 197.73C20.63 198.43 21.69 198.56 22.31 198.08C22.73 197.75 23.06 197.01 22.96 196.48C22.98 196.48 23.01 196.49 23.03 196.5L23.23 196.46C23.68 196.56 24.04 196.9 24.53 196.82C24.77 196.78 25.63 196.34 25.49 195.98C25.73 196.62 26.75 196.69 27.2 196.16C27.65 195.64 27.55 194.8 27.14 194.25C27.63 194.87 28.7 194.87 29.19 194.25C29.68 193.63 29.42 192.59 28.71 192.26C29.66 192.8 30.92 192.79 31.83 192.18C32.74 191.57 33.22 190.36 32.92 189.3L32.93 189.27Z" fill="#77B45D"/>
<path d="M12.77 150.89C12.77 150.89 12.75 150.9 12.74 150.91C12.74 150.91 12.76 150.89 12.76 150.88L12.77 150.89Z" fill="#77B45D"/>
<path d="M52.29 206.85C52.75 206.35 52.94 205.51 52.76 204.79C52.58 204.07 52.04 203.51 51.44 203.42C51.81 202.86 51.91 202.05 51.69 201.38C51.5 200.79 51.01 200.34 50.56 200.09C51.32 198.99 51.8 197.48 51.26 196.05C50.77 194.77 49.55 194 48.44 194.27C48.28 193.32 47.6 192.53 46.83 192.41C46.06 192.29 45.24 192.83 44.89 193.7C44.1 192.77 43.24 191.84 42.18 191.5C41.13 191.16 39.83 191.61 39.37 192.83C38.47 192.03 37.53 191.21 36.44 191.01C35.35 190.82 34.08 191.48 33.78 192.8C32.63 192.69 31.73 191.53 30.65 191C29.57 190.48 27.9 191.27 28.18 192.67C27.34 192.07 26.47 191.45 25.5 191.33C24.54 191.21 23.45 191.72 23.06 192.83C22.47 189.82 18.99 188.49 17.15 190.57C16.24 188.9 13.8 189.26 13.23 191.16C12.82 189.9 11.63 189.14 10.57 189.46C9.51999 189.78 8.73999 191.16 8.84999 192.51C7.78999 192.28 6.64999 192.91 6.06999 194.04C5.48999 195.17 5.50999 196.73 6.10999 197.84C4.98999 198.17 4.10999 199.52 4.08999 200.96C4.06999 202.52 5.51999 205.71 6.71999 206.32C6.18999 206.48 5.75999 206.97 5.71999 207.68C5.67999 208.38 6.00999 209.06 6.45999 209.46C6.86999 209.83 7.36999 209.99 7.86999 210.07C7.86999 210.1 7.85999 210.12 7.85999 210.15C7.40999 210.32 7.01999 210.85 7.08999 211.42C7.15999 212.07 7.58999 212.6 8.07999 212.83C8.56999 213.06 9.11999 213.04 9.62999 212.93C9.78999 212.9 9.94999 212.85 10.09 212.76C9.91999 212.96 9.85999 213.3 9.90999 213.6C9.97999 213.98 10.19 214.29 10.4 214.57C10.74 215.01 11.11 215.45 11.58 215.63C12.13 215.84 12.73 215.61 13.16 215.14C13.01 215.89 13.16 216.74 13.57 217.32C14.08 218.03 14.95 218.3 15.66 217.96C15.88 218.86 16.61 219.44 17.35 219.6C18.09 219.76 18.85 219.56 19.58 219.37C19.61 220.08 20.05 220.68 20.57 220.96C21.09 221.24 21.68 221.24 22.24 221.18C23.35 221.06 24.44 220.7 25.45 220.13C25.82 221.2 26.8 221.78 27.73 221.82C28.66 221.87 29.57 221.48 30.44 221.09C31.99 222.59 34.56 221.99 35.57 219.88C36.29 220.59 37.31 220.79 38.17 220.41C39.22 219.94 39.32 218.65 40.08 218.03C40.87 217.38 42.69 217.37 43.64 217.05C44.17 216.87 44.56 216.66 45.1 216.73C45.69 216.8 46.21 216.87 46.79 216.67C47.05 216.58 47.31 216.44 47.5 216.2C47.68 215.95 47.77 215.57 47.66 215.27C48.26 215.45 48.91 215.54 49.49 215.27C50.07 215 50.55 214.27 50.47 213.5C51.04 213.58 51.63 213.22 51.92 212.6C52.21 211.99 52.19 211.16 51.86 210.57C52.58 210.38 53.25 209.71 53.39 208.81C53.53 207.91 53.01 206.87 52.28 206.83L52.29 206.85ZM8.78999 197.33C8.78999 197.33 8.79999 197.33 8.80999 197.35C8.80999 197.35 8.78999 197.35 8.77999 197.33H8.78999ZM13.47 214.69C13.51 214.62 13.54 214.54 13.56 214.47C13.59 214.56 13.63 214.64 13.67 214.72L13.47 214.69Z" fill="#77B45D"/>
<path d="M10.18 236.61C11.06 235.84 11.43 234.54 11.08 233.43C10.73 232.32 9.69 231.45 8.53 231.32C9.24 230.46 9.43 229.21 9.01 228.18C8.59 227.15 7.57 226.39 6.46 226.28C6.78 225.06 6.29 223.68 5.27 222.94C4.09 222.07 3.05 222.57 1.84 222.61C3 220.63 2.8 218.3 1.22 216.55C1.11 216.43 0.99 216.26 0.84 216.05C1.08 215.43 1.07 214.65 0.94 213.98C0.86 213.57 0.75 213.14 0.48 212.82C0.34 212.66 0.18 212.55 0 212.47V251.69C0.36 251.54 0.69 251.35 0.94 251.07C1.29 250.69 1.47 250.1 1.24 249.63C2.4 249.91 3.65 250.05 4.77 249.63C5.89 249.21 6.81 248.08 6.67 246.9C7.77 247.03 8.91 246.46 9.48 245.52C10.05 244.57 10 243.3 9.37 242.39C10.75 242.09 12.04 241.07 12.33 239.68C12.61 238.29 11.6 236.69 10.18 236.62V236.61Z" fill="#4A7C47"/>
<path d="M7.39001 226.38C7.29001 225.88 7.16001 225.36 6.83001 224.96C6.30001 224.33 5.50001 224.23 4.67001 224.36C4.55001 224.12 4.42001 223.88 4.30001 223.64C5.08001 222.47 4.89001 220.67 3.95001 219.54C3.33001 218.8 2.50001 218.31 1.59001 217.98C1.53001 217.85 2.41001 217.32 2.25001 215.78C2.11001 214.46 1.31001 213.16 0.0100098 212.92C1.71001 211.71 2.56001 209.3 1.69001 207.4C1.35001 206.66 0.73001 206.09 0.0100098 205.72V242.06C1.28001 242.27 2.66001 242.39 2.93001 242.32C4.92001 241.84 6.52001 240.25 7.56001 238.56C10.24 234.21 8.18001 230.46 7.40001 226.37L7.39001 226.38Z" fill="#77B45D"/>
<path d="M925.681 102.735C925.576 102.63 925.487 102.526 925.382 102.436C922.385 99.8567 917.703 99.3348 914.318 101.378C912.648 102.392 911.619 103.704 911.037 105.165C910.187 107.327 910.277 109.848 910.635 112.323C907.891 111.622 907.473 107.864 904.118 108.222C901.3 108.52 899.153 111.637 899.868 114.381C898.72 112.576 896.304 111.682 894.261 112.308C892.219 112.934 890.713 115.022 890.772 117.169C889.445 115.723 887.014 115.991 885.359 117.035C882.914 118.571 881.422 121.538 881.676 124.416C879.111 123.641 876.069 124.103 874.22 126.042C872.401 127.95 872.267 131.082 873.967 133.095C872.386 131.634 871.104 129.591 868.673 129.725C866.764 129.829 865.035 131.186 864.214 132.916C863.484 134.452 863.409 136.241 863.767 137.911C863.126 135.854 861.143 134.198 858.98 134.288C855.834 134.437 854.656 138.374 854.134 140.879C855.58 134.02 845.455 129.427 839.506 133.14C833.556 136.853 831.781 144.696 831.722 151.705C826.488 152.644 824.46 154.657 823.908 158.475C823.222 163.276 826.338 165.379 829.738 165.275C828.173 167.556 825.638 168.6 826.503 172.044C826.279 171.15 825.28 170.628 824.355 170.628C823.431 170.628 822.566 171.045 821.731 171.448C819.867 172.358 817.898 173.357 816.855 175.146C815.796 176.936 816.213 179.724 818.152 180.425C814.245 180.082 810.293 182.796 809.22 186.568C808.549 188.939 809.071 191.564 810.413 193.607C809.712 193.711 809.041 193.965 808.504 194.427C807.281 195.486 806.894 197.394 807.594 198.841C805.179 196.619 800.899 196.947 798.841 199.497C797.007 201.778 797.305 205.417 799.303 207.505C799.244 207.609 799.184 207.728 799.125 207.833C797.261 207.355 795.083 208.25 794.069 209.92C792.877 211.889 793.234 214.588 794.681 216.377C792.056 214.379 787.613 215.87 786.718 219.031C785.853 222.058 788.328 224.593 790.998 225.548C790.118 226.875 787.985 227.039 786.793 228.262C785.182 229.917 784.302 232.362 784.511 234.659C784.809 238.029 787.419 241.056 790.685 241.876C788.075 241.861 785.838 244.322 785.659 246.931C785.465 249.541 787.001 252.076 789.119 253.597C791.027 254.969 793.354 255.595 795.695 255.863C795.68 255.953 795.65 256.057 795.635 256.147C793.533 256.773 791.728 258.756 792.012 260.904C792.355 263.334 794.323 265.317 796.619 266.182C798.916 267.062 801.466 266.973 803.881 266.555C804.627 266.421 805.373 266.242 806.044 265.914C805.268 266.674 804.97 267.942 805.209 269.045C805.537 270.462 806.521 271.61 807.52 272.669C809.086 274.339 810.845 275.949 813.037 276.621C815.587 277.411 818.435 276.561 820.404 274.786C819.703 277.605 820.404 280.766 822.327 282.943C824.698 285.612 828.769 286.596 832.109 285.329C833.123 288.684 836.553 290.861 840.013 291.458C843.472 292.039 847.006 291.324 850.451 290.608C850.57 293.247 852.643 295.499 855.073 296.543C857.504 297.571 860.248 297.601 862.872 297.363C868.047 296.915 873.146 295.573 877.873 293.426C879.603 297.422 884.166 299.585 888.52 299.749C892.875 299.913 897.095 298.466 901.21 297.035C908.472 302.656 920.461 300.405 925.188 292.531C925.352 292.651 925.516 292.755 925.681 292.874V102.705V102.735ZM821.85 273.057C822.014 272.788 822.163 272.505 822.297 272.222C822.432 272.55 822.611 272.848 822.804 273.161L821.85 273.057Z" fill="#3F6C3D"/>
<path d="M799.96 208.161L799.989 208.131C799.989 208.131 800.049 208.19 800.094 208.22C800.049 208.19 800.004 208.19 799.96 208.161Z" fill="#3F6C3D"/>
<path d="M925.681 107.491C924.532 107.626 923.414 107.954 922.415 108.565C920.879 109.49 919.954 110.683 919.418 112.04C918.642 114.023 918.717 116.319 919.045 118.586C916.54 117.945 916.152 114.5 913.08 114.828C910.515 115.096 908.547 117.945 909.203 120.45C908.159 118.795 905.952 117.974 904.073 118.556C902.195 119.123 900.823 121.046 900.882 123C899.674 121.673 897.453 121.926 895.932 122.88C893.695 124.282 892.338 126.996 892.562 129.635C890.22 128.92 887.432 129.352 885.747 131.127C884.092 132.871 883.957 135.734 885.523 137.568C884.077 136.226 882.914 134.362 880.677 134.482C878.932 134.571 877.352 135.809 876.606 137.39C875.935 138.791 875.875 140.432 876.203 141.953C875.622 140.074 873.803 138.553 871.834 138.642C868.956 138.776 867.883 142.385 867.405 144.666C868.718 138.389 859.472 134.198 854.03 137.598C848.602 140.998 846.961 148.171 846.917 154.583C842.13 155.433 840.281 157.282 839.774 160.771C839.148 165.155 841.996 167.079 845.097 166.989C843.666 169.062 841.34 170.031 842.13 173.178C841.921 172.358 841.012 171.88 840.162 171.88C839.312 171.88 838.521 172.268 837.761 172.641C836.061 173.476 834.257 174.386 833.302 176.011C832.348 177.636 832.706 180.186 834.495 180.842C830.931 180.529 827.308 183.005 826.338 186.449C825.727 188.626 826.204 191.012 827.427 192.891C826.786 192.981 826.174 193.219 825.682 193.637C824.564 194.606 824.206 196.351 824.847 197.678C822.64 195.65 818.719 195.948 816.84 198.274C815.155 200.362 815.438 203.687 817.257 205.596C817.198 205.7 817.138 205.79 817.093 205.894C815.393 205.462 813.395 206.267 812.471 207.803C811.382 209.607 811.695 212.068 813.022 213.708C810.622 211.889 806.566 213.246 805.745 216.138C804.955 218.897 807.222 221.223 809.652 222.103C808.847 223.311 806.894 223.46 805.805 224.579C804.329 226.085 803.538 228.321 803.717 230.424C804.001 233.496 806.372 236.269 809.369 237.015C806.983 237 804.94 239.252 804.776 241.638C804.612 244.023 805.999 246.335 807.937 247.736C809.682 248.989 811.814 249.556 813.962 249.809C813.947 249.899 813.917 249.988 813.902 250.063C811.978 250.644 810.323 252.449 810.592 254.402C810.905 256.624 812.709 258.428 814.797 259.233C816.884 260.039 819.226 259.964 821.433 259.576C822.104 259.457 822.804 259.293 823.401 258.98C822.685 259.666 822.417 260.844 822.64 261.843C822.939 263.14 823.833 264.199 824.743 265.153C826.174 266.674 827.785 268.151 829.783 268.762C832.109 269.478 834.719 268.702 836.523 267.077C835.882 269.642 836.523 272.55 838.283 274.533C840.445 276.963 844.173 277.873 847.215 276.71C848.139 279.782 851.271 281.78 854.447 282.302C857.608 282.839 860.844 282.183 863.991 281.526C864.11 283.942 865.989 286 868.211 286.954C870.433 287.894 872.938 287.909 875.353 287.7C880.08 287.297 884.748 286.075 889.072 284.106C890.653 287.76 894.828 289.743 898.795 289.892C902.776 290.041 906.638 288.714 910.396 287.402C914.676 290.712 920.715 291.01 925.651 288.908V107.432L925.681 107.491ZM837.88 265.511C838.029 265.258 838.164 265.004 838.283 264.751C838.417 265.049 838.566 265.332 838.745 265.601L837.88 265.511Z" fill="#4C894A"/>
<path d="M817.869 206.177L817.898 206.148C817.898 206.148 817.958 206.207 817.988 206.237C817.943 206.222 817.913 206.207 817.869 206.192V206.177Z" fill="#4C894A"/>
<path d="M925.681 214.931C925.248 214.826 924.786 214.796 924.353 214.931C923.28 215.259 922.504 216.347 922.534 217.466C921.848 216.705 920.581 216.854 919.716 217.391C918.433 218.196 917.673 219.732 917.792 221.238C916.45 220.836 914.87 221.074 913.915 222.088C912.976 223.072 912.901 224.713 913.781 225.757C912.961 224.996 912.29 223.937 911.022 223.997C910.023 224.057 909.129 224.757 908.711 225.652C908.338 226.457 908.294 227.382 908.487 228.262C908.159 227.188 907.115 226.323 905.997 226.383C904.357 226.457 903.745 228.515 903.477 229.813C904.223 226.234 898.959 223.848 895.857 225.786C892.755 227.725 891.831 231.811 891.801 235.464C889.072 235.956 888.014 237 887.73 238.983C887.372 241.488 888.998 242.577 890.757 242.517C889.937 243.695 888.625 244.247 889.072 246.051C888.953 245.589 888.431 245.306 887.954 245.321C887.477 245.321 887.029 245.544 886.582 245.753C885.613 246.23 884.584 246.752 884.047 247.677C883.495 248.601 883.704 250.063 884.718 250.435C882.69 250.257 880.632 251.673 880.066 253.627C879.708 254.864 879.991 256.221 880.692 257.295C880.334 257.355 879.976 257.474 879.693 257.727C879.067 258.279 878.858 259.263 879.216 260.024C877.963 258.861 875.726 259.04 874.653 260.367C873.698 261.56 873.847 263.453 874.891 264.542C874.861 264.602 874.832 264.661 874.802 264.706C873.832 264.453 872.699 264.915 872.162 265.795C871.536 266.823 871.73 268.225 872.475 269.15C871.104 268.106 868.792 268.881 868.33 270.537C867.883 272.117 869.165 273.429 870.552 273.936C870.09 274.622 868.986 274.712 868.36 275.353C867.525 276.218 867.063 277.485 867.167 278.678C867.331 280.423 868.673 282.004 870.388 282.436C869.031 282.436 867.868 283.704 867.763 285.061C867.659 286.418 868.464 287.745 869.568 288.535C870.567 289.251 871.775 289.579 872.997 289.713C872.997 289.758 872.968 289.817 872.968 289.862C871.879 290.19 870.925 291.219 871.089 292.338C871.268 293.605 872.297 294.634 873.489 295.096C874.682 295.558 876.01 295.514 877.277 295.29C877.665 295.215 878.053 295.126 878.396 294.947C877.993 295.335 877.829 296.006 877.963 296.572C878.127 297.303 878.649 297.914 879.171 298.466C879.991 299.331 880.901 300.166 882.034 300.524C883.361 300.942 884.837 300.494 885.866 299.57C885.493 301.031 885.866 302.686 886.865 303.82C888.103 305.206 890.22 305.728 891.965 305.057C892.487 306.802 894.276 307.935 896.081 308.248C897.885 308.547 899.719 308.174 901.524 307.816C901.583 309.188 902.657 310.366 903.924 310.903C905.192 311.439 906.623 311.454 907.995 311.335C910.694 311.096 913.349 310.411 915.809 309.292C916.704 311.38 919.09 312.498 921.356 312.588C922.818 312.647 924.264 312.334 925.681 311.917V214.931ZM886.642 298.66C886.731 298.526 886.806 298.377 886.865 298.228C886.94 298.392 887.029 298.556 887.134 298.72L886.642 298.675V298.66Z" fill="#345D33"/>
<path d="M875.234 264.855H875.249C875.249 264.855 875.279 264.87 875.309 264.885C875.294 264.885 875.264 264.87 875.234 264.855Z" fill="#345D33"/>
<path d="M925.68 219.076C925.024 219.166 924.398 219.419 923.951 219.896C923.16 220.731 923.101 222.088 923.846 222.968C923.16 222.327 922.594 221.432 921.535 221.492C920.7 221.536 919.954 222.133 919.596 222.879C919.283 223.55 919.239 224.325 919.403 225.056C919.119 224.161 918.254 223.43 917.315 223.475C915.943 223.535 915.436 225.264 915.198 226.353C915.824 223.356 911.41 221.358 908.815 222.983C906.221 224.608 905.445 228.023 905.415 231.08C903.134 231.483 902.254 232.362 902.016 234.033C901.717 236.12 903.074 237.045 904.551 237C903.865 237.999 902.761 238.446 903.134 239.952C903.03 239.565 902.597 239.341 902.194 239.341C901.792 239.341 901.419 239.52 901.046 239.699C900.241 240.102 899.376 240.534 898.914 241.309C898.452 242.085 898.631 243.308 899.481 243.621C897.781 243.472 896.051 244.65 895.589 246.305C895.29 247.334 895.514 248.482 896.11 249.377C895.812 249.421 895.514 249.526 895.275 249.735C894.739 250.197 894.575 251.032 894.873 251.658C893.814 250.689 891.95 250.823 891.055 251.942C890.25 252.941 890.384 254.521 891.249 255.431C891.219 255.476 891.19 255.52 891.175 255.565C890.369 255.356 889.415 255.744 888.968 256.475C888.446 257.34 888.595 258.503 889.236 259.293C888.088 258.428 886.149 259.069 885.762 260.456C885.389 261.768 886.463 262.887 887.626 263.304C887.238 263.886 886.313 263.945 885.792 264.482C885.091 265.198 884.703 266.272 884.793 267.271C884.927 268.732 886.06 270.059 887.492 270.417C886.343 270.417 885.374 271.476 885.299 272.624C885.21 273.757 885.881 274.861 886.806 275.532C887.641 276.128 888.655 276.397 889.669 276.516C889.669 276.561 889.654 276.606 889.639 276.635C888.729 276.904 887.939 277.769 888.058 278.708C888.207 279.767 889.072 280.632 890.071 281.019C891.07 281.407 892.189 281.362 893.233 281.183C893.561 281.124 893.889 281.049 894.172 280.9C893.829 281.228 893.695 281.78 893.814 282.272C893.948 282.883 894.381 283.39 894.813 283.853C895.499 284.583 896.26 285.284 897.214 285.582C898.332 285.925 899.57 285.553 900.42 284.777C900.107 286 900.42 287.387 901.255 288.341C902.284 289.504 904.058 289.937 905.52 289.385C905.967 290.846 907.458 291.801 908.964 292.054C910.471 292.308 912.021 291.994 913.513 291.681C913.572 292.83 914.467 293.814 915.526 294.276C916.584 294.723 917.777 294.738 918.926 294.634C921.177 294.44 923.399 293.858 925.472 292.919C925.516 293.008 925.561 293.083 925.606 293.173V219.106L925.68 219.076Z" fill="#4C894A"/>
<path d="M891.577 255.684C891.577 255.684 891.607 255.684 891.622 255.714C891.607 255.714 891.577 255.699 891.562 255.684H891.577Z" fill="#4C894A"/>
<path d="M901.121 283.987C901.196 283.868 901.255 283.748 901.315 283.629C901.374 283.763 901.449 283.912 901.538 284.032L901.121 283.987Z" fill="#4C894A"/>
<path d="M925.681 225.906C924.309 225.041 922.146 225.801 921.699 227.382C921.252 228.963 922.534 230.275 923.921 230.782C923.459 231.468 922.355 231.557 921.729 232.198C920.894 233.063 920.432 234.331 920.536 235.524C920.7 237.268 922.042 238.849 923.757 239.281C922.4 239.281 921.237 240.549 921.132 241.906C921.028 243.263 921.833 244.59 922.937 245.38C923.742 245.962 924.696 246.275 925.666 246.454V225.906H925.681Z" fill="#5A9856"/>
<path d="M925.681 100.2C924.696 101.497 924.16 103.137 924.279 104.763C923.22 102.108 919.224 101.87 916.972 103.614C914.72 105.374 913.766 108.282 912.931 111.026C911.574 108.476 907.846 107.999 905.356 109.46C902.881 110.921 901.509 113.74 900.838 116.543C894.724 117.184 890.727 125.102 893.859 130.396C888.849 132.827 886.94 140.044 890.101 144.622C885.359 146.903 882.72 152.823 884.196 157.878C884.39 158.549 882.645 161.532 882.511 162.516C882.332 163.903 882.735 165.066 882.705 166.393C882.66 168.779 881.258 172.462 882.615 174.624C883.018 175.28 883.808 175.757 884.569 175.623C883.704 177.189 883.018 178.934 883.197 180.708C883.361 182.483 884.614 184.242 886.388 184.511C885.777 186.032 886.135 187.911 887.268 189.089C888.401 190.282 890.265 190.714 891.816 190.162C891.697 192.265 892.666 194.531 894.545 195.486C896.424 196.44 899.138 195.62 899.794 193.607C900.554 195.173 902.284 196.216 904.014 196.157C905.744 196.097 907.399 194.934 908.055 193.324C909.009 194.68 910.739 195.441 912.379 195.247C914.02 195.038 915.511 193.875 916.107 192.324C917.733 193.264 919.925 193.1 921.386 191.937C923.101 190.58 922.788 188.895 923.205 187.12C923.951 187.881 924.786 188.432 925.695 188.835V100.2H925.681Z" fill="#508D48"/>
<path d="M925.681 90C925.084 90.8052 924.786 91.849 924.98 92.8481C923.608 91.7894 921.61 91.6403 920.074 92.4604C918.553 93.2806 917.583 95.0402 917.703 96.7699C916.987 94.9954 914.303 94.8165 912.797 95.9945C911.276 97.1725 910.65 99.126 910.083 100.975C909.173 99.2602 906.668 98.947 904.998 99.9163C903.328 100.9 902.403 102.794 901.956 104.673C897.855 105.106 895.171 110.414 897.259 113.978C893.889 115.603 892.621 120.45 894.739 123.536C891.548 125.057 889.773 129.039 890.772 132.439C890.906 132.886 889.728 134.899 889.639 135.555C889.52 136.48 889.788 137.27 889.773 138.165C889.743 139.775 888.804 142.236 889.713 143.697C889.997 144.145 890.519 144.458 891.026 144.368C890.444 145.412 889.982 146.59 890.101 147.783C890.22 148.976 891.055 150.154 892.234 150.333C891.816 151.362 892.07 152.614 892.83 153.405C893.591 154.195 894.843 154.493 895.872 154.135C895.797 155.552 896.439 157.073 897.706 157.714C898.974 158.355 900.793 157.804 901.225 156.447C901.732 157.505 902.895 158.206 904.059 158.162C905.222 158.117 906.34 157.341 906.772 156.253C907.414 157.162 908.577 157.684 909.68 157.55C910.784 157.416 911.783 156.626 912.185 155.597C913.274 156.223 914.75 156.119 915.734 155.328C916.883 154.419 916.674 153.285 916.957 152.092C918.568 153.733 920.864 154.165 922.967 153.092C923.101 153.017 923.31 152.942 923.548 152.853C924.085 153.241 924.845 153.449 925.517 153.494C925.561 153.494 925.606 153.494 925.651 153.494V90H925.681Z" fill="#77B45D"/>
<path d="M875.234 231.065C875.085 230.319 874.891 229.544 874.399 228.948C873.609 228.008 872.416 227.859 871.178 228.053C870.999 227.695 870.805 227.337 870.626 226.979C871.79 225.235 871.506 222.55 870.104 220.865C869.18 219.762 867.942 219.031 866.585 218.539C866.496 218.345 867.808 217.555 867.57 215.259C867.361 213.29 866.183 211.352 864.229 210.994C866.764 209.19 868.032 205.596 866.734 202.763C865.437 199.944 861.411 198.617 858.921 200.481C859.935 198.871 860.248 196.828 859.756 194.994C859.338 193.458 857.847 191.892 856.371 192.488C857.937 191.042 857.534 188.194 855.819 186.911C854.656 186.046 852.494 185.718 851.196 186.345C851.196 186.285 851.196 186.211 851.211 186.151L850.958 185.659C850.898 184.436 851.524 183.243 850.973 182.02C850.704 181.409 848.945 179.485 848.095 180.112C849.601 179.023 849.034 176.324 847.349 175.549C845.664 174.758 843.547 175.593 842.413 177.07C843.681 175.37 842.905 172.551 840.952 171.731C838.999 170.911 836.449 172.313 836.106 174.4C836.836 171.522 835.897 168.257 833.66 166.318C831.409 164.395 827.919 163.992 825.384 165.528C824.132 166.288 823.371 167.258 822.924 168.361C822.283 169.987 822.357 171.865 822.626 173.714C820.568 173.193 820.255 170.374 817.749 170.643C815.647 170.866 814.036 173.207 814.573 175.25C813.708 173.893 811.904 173.222 810.368 173.7C808.832 174.162 807.714 175.728 807.759 177.338C805.373 174.728 803.091 178.337 801.615 179.56C800.452 180.514 798.096 181.722 797.111 182.632C793.563 185.927 793.085 192.354 797.678 195.426C795.069 198.14 797.141 203.598 800.884 203.896C797.693 204.403 795.188 207.609 795.471 210.83C795.755 214.036 798.782 216.765 802.003 216.705C800.034 220.433 800.556 225.309 803.27 228.53C805.984 231.751 810.711 233.108 814.707 231.811C812.5 235.196 813.708 240.042 816.691 242.771C819.673 245.485 823.968 246.365 827.994 246.066C827.069 248.527 828.173 251.569 830.454 252.866C832.736 254.163 835.927 253.552 837.567 251.509C839.163 253.984 841.399 256.43 844.337 256.728C847.275 257.026 850.406 253.85 849.034 251.241C849.601 253.731 851.808 255.774 854.328 256.147C856.908 256.534 859.338 255.162 860.859 253.179C860.143 254.104 867.778 255.013 868.584 254.819C871.551 254.104 873.937 251.733 875.488 249.213C879.484 242.726 876.412 237.134 875.249 231.035L875.234 231.065Z" fill="#5BA052"/>
<path d="M925.681 150.9C925.099 151.75 924.726 152.823 924.711 153.957C924.711 154.956 925.084 156.387 925.681 157.774V150.9Z" fill="#77B45D"/>
<path d="M925.681 226.487V186.24C924.234 185.614 922.892 186.151 921.356 186.196C923.086 183.243 922.788 179.769 920.432 177.159C920.268 176.98 920.089 176.727 919.865 176.414C920.223 175.489 920.208 174.326 920.014 173.327C919.895 172.715 919.731 172.074 919.328 171.597C918.687 170.837 917.703 170.702 916.674 170.866C916.525 170.568 916.376 170.285 916.212 169.987C917.166 168.555 916.942 166.348 915.779 164.961C915.019 164.052 914.005 163.455 912.886 163.053C912.812 162.889 913.885 162.247 913.692 160.354C913.527 158.743 912.543 157.148 910.948 156.849C913.035 155.373 914.064 152.406 913.006 150.079C911.932 147.753 908.636 146.68 906.579 148.201C907.414 146.873 907.667 145.188 907.265 143.682C906.922 142.415 905.699 141.132 904.491 141.624C905.773 140.432 905.445 138.09 904.044 137.047C903.089 136.331 901.3 136.062 900.241 136.584C900.241 136.54 900.241 136.48 900.241 136.42L900.032 136.018C899.973 135.004 900.495 134.034 900.047 133.035C899.824 132.543 898.377 130.963 897.676 131.47C898.914 130.575 898.452 128.353 897.065 127.712C895.678 127.071 893.948 127.757 892.994 128.964C894.038 127.563 893.397 125.251 891.801 124.58C890.206 123.909 888.103 125.058 887.82 126.772C888.416 124.416 887.656 121.717 885.807 120.137C883.957 118.556 881.08 118.228 879.007 119.481C877.978 120.107 877.352 120.912 876.994 121.822C876.472 123.149 876.531 124.7 876.755 126.221C875.07 125.788 874.817 123.477 872.744 123.701C871.014 123.88 869.687 125.803 870.134 127.488C869.433 126.37 867.942 125.833 866.675 126.206C865.407 126.593 864.483 127.876 864.527 129.203C863.707 128.308 862.216 128.487 861.187 129.128C859.651 130.083 858.906 131.827 858.846 133.572C856.266 133.393 854.283 131.798 851.942 131.678C850.242 131.589 848.482 133.304 849.064 134.899C848.333 133.334 846.126 132.692 844.665 133.602C843.398 134.392 842.965 136.197 843.576 137.539C842.652 136.42 840.773 136.271 839.267 136.599C838.656 136.733 837.985 136.942 837.657 137.479C837.358 137.971 837.403 138.597 837.507 139.179C838.104 142.996 838.014 141.46 835.852 143.354C834.704 144.368 833.884 144.234 833.675 146.158C833.481 148.007 834.734 150.109 836.568 150.601C834.525 150.288 832.408 151.988 832.258 154.046C832.109 156.104 833.958 158.087 836.031 158.072C833.705 158.4 831.96 160.98 832.542 163.247C833.108 165.528 835.867 166.974 838.074 166.154C833.973 166.885 831.394 172.089 833.302 175.787C829.768 175.072 825.876 176.995 824.311 180.246C822.745 183.497 823.669 187.746 826.428 190.058C825.041 191.996 825.16 194.859 826.696 196.664C828.232 198.483 831.036 199.079 833.168 198.051C832.199 200.436 832.751 203.374 834.54 205.238C836.314 207.102 839.222 207.803 841.653 206.953C839.371 208.683 840.192 212.589 842.488 214.304C844.769 216.019 847.841 216.168 850.704 216.243C848.602 218.226 849.124 221.954 851.196 223.952C853.269 225.965 856.341 226.532 859.219 226.442C861.441 232.169 870.134 233.928 874.414 229.514C878.082 233.704 885.538 233.63 889.117 229.38C892.562 233.347 898.974 234.331 903.462 231.572C904.059 231.199 907.399 232.109 908.383 231.96C909.77 231.766 910.784 231.065 912.066 230.752C914.377 230.17 918.299 230.543 920.044 228.664C920.566 228.098 920.834 227.218 920.491 226.517C922.206 226.935 924.055 227.128 925.71 226.517L925.681 226.487Z" fill="#4A7C47"/>
<path d="M808.653 185.152C808.653 185.152 808.698 185.197 808.713 185.211C808.683 185.211 808.653 185.197 808.638 185.182H808.653V185.152Z" fill="#4A7C47"/>
<path d="M925.68 188.805C925.68 188.805 925.606 188.805 925.576 188.805C925.397 188.447 925.203 188.089 925.024 187.732C925.382 187.195 925.591 186.553 925.68 185.882V184.406C925.546 183.392 925.144 182.408 924.502 181.618C923.578 180.514 922.34 179.784 920.983 179.291C920.894 179.098 922.206 178.307 921.967 176.011C921.759 174.043 920.566 172.104 918.627 171.746C921.162 169.942 922.43 166.348 921.132 163.515C919.835 160.697 915.809 159.369 913.319 161.233C914.333 159.623 914.646 157.58 914.154 155.746C913.736 154.21 912.245 152.644 910.769 153.241C912.334 151.794 911.932 148.946 910.217 147.664C909.054 146.799 906.892 146.471 905.594 147.097C905.594 147.037 905.594 146.963 905.609 146.903L905.356 146.411C905.296 145.188 905.922 143.995 905.371 142.773C905.102 142.161 903.343 140.238 902.493 140.864C903.999 139.775 903.432 137.076 901.747 136.301C900.062 135.511 897.945 136.346 896.811 137.822C898.079 136.122 897.303 133.304 895.35 132.484C893.397 131.663 890.847 133.065 890.504 135.153C891.234 132.275 890.295 129.009 888.058 127.071C885.806 125.147 882.317 124.744 879.782 126.28C878.53 127.041 877.769 128.01 877.322 129.113C876.68 130.739 876.755 132.618 877.023 134.467C874.966 133.945 874.653 131.127 872.147 131.395C870.045 131.619 868.434 133.96 868.971 136.003C868.106 134.646 866.302 133.975 864.766 134.452C863.23 134.914 862.112 136.48 862.156 138.09C859.771 135.481 857.489 139.089 856.013 140.312C854.85 141.267 852.494 142.474 851.509 143.384C847.96 146.679 847.483 153.106 852.076 156.178C849.467 158.892 851.539 164.35 855.282 164.648C852.091 165.155 849.586 168.361 849.869 171.582C850.152 174.788 853.18 177.517 856.4 177.457C854.432 181.185 854.969 186.061 857.668 189.282C860.382 192.503 865.109 193.86 869.105 192.563C866.898 195.948 868.106 200.794 871.089 203.523C874.071 206.252 878.366 207.117 882.392 206.819C881.467 209.279 882.571 212.321 884.852 213.618C887.134 214.916 890.31 214.304 891.965 212.261C893.561 214.737 895.797 217.182 898.735 217.48C901.33 217.749 904.058 215.303 903.73 212.932C904.565 214.99 906.519 216.571 908.726 216.899C911.306 217.287 913.736 215.915 915.257 213.931C914.541 214.856 922.176 215.766 922.981 215.572C923.951 215.333 924.86 214.916 925.695 214.379V188.775L925.68 188.805Z" fill="#77B45D"/>
<path d="M794.204 206.192C794.204 206.192 794.248 206.237 794.278 206.267C794.248 206.252 794.219 206.237 794.174 206.222L794.204 206.192Z" fill="#77B45D"/>
<path d="M141.39 84.71C142.12 82.8 142.51 80.81 142.51 78.77C142.51 64.6 124.1 53.11 101.39 53.11C97.64 53.11 94.01 53.43 90.56 54.02C86.57 42.46 70.1 33.78 50.37 33.78C30.64 33.78 13.09 43.03 9.84 55.17C9.06 55.14 8.28 55.13 7.48 55.13C4.92 55.13 2.43 55.28 0 55.56V106.89C14.27 107.95 30.33 108.54 47.32 108.54C106.5 108.54 154.47 101.33 154.47 92.43C154.47 89.63 149.73 87.01 141.39 84.71Z" fill="white"/>
<path d="M361.82 69.87C362.14 69.03 362.31 68.15 362.31 67.25C362.31 61 354.19 55.93 344.17 55.93C342.52 55.93 340.92 56.07 339.39 56.33C337.63 51.23 330.36 47.4 321.66 47.4C312.96 47.4 305.21 51.48 303.78 56.84C303.44 56.83 303.09 56.82 302.74 56.82C292.72 56.82 284.6 61.89 284.6 68.14C284.6 68.3 284.6 68.46 284.62 68.62C277.42 69.87 273.05 71.49 273.05 73.28C273.05 77.2 294.21 80.39 320.32 80.39C346.43 80.39 367.59 77.21 367.59 73.28C367.59 72.05 365.5 70.89 361.82 69.88V69.87Z" fill="white"/>
<path d="M626.906 102.418C627.411 101.094 627.678 99.7069 627.678 98.2883C627.678 88.4368 614.881 80.4453 599.089 80.4453C596.488 80.4453 593.967 80.666 591.555 81.0758C588.782 73.037 577.324 67 563.612 67C549.9 67 537.686 73.431 535.432 81.8797C534.896 81.8639 534.345 81.8481 533.793 81.8481C518.001 81.8481 505.203 89.8396 505.203 99.6911C505.203 99.9433 505.203 100.196 505.235 100.448C493.887 102.418 487 104.972 487 107.793C487 113.972 520.349 119 561.5 119C602.651 119 636 113.988 636 107.793C636 105.854 632.706 104.026 626.906 102.434V102.418Z" fill="white"/>
<path d="M794.117 51.0712C794.388 50.3583 794.532 49.6114 794.532 48.8475C794.532 43.5429 787.661 39.2398 779.182 39.2398C777.786 39.2398 776.432 39.3586 775.137 39.5793C773.648 35.2507 767.496 32 760.134 32C752.772 32 746.214 35.4629 745.004 40.0121C744.716 40.0036 744.42 39.9951 744.124 39.9951C735.645 39.9951 728.774 44.2983 728.774 49.6029C728.774 49.7387 728.774 49.8745 728.791 50.0103C722.698 51.0712 719 52.4462 719 53.9654C719 57.2925 736.906 60 759 60C781.094 60 799 57.301 799 53.9654C799 52.9215 797.231 51.9369 794.117 51.0797V51.0712Z" fill="white"/>
</svg>
