<svg width="926" height="85" viewBox="0 0 926 85" fill="none" xmlns="http://www.w3.org/2000/svg">
<g filter="url(#filter0_d_1_1079)">
<rect width="926" height="57" fill="white" fill-opacity="0.1"/>
<path d="M64.8293 26.3033C64.7805 20.0154 63.1568 13.8792 62.29 13.0442C61.3867 12.2725 53.0731 10.7416 44.4299 10.691C35.7745 10.7416 27.461 12.2725 26.5698 13.0442C25.6786 13.8792 24.0672 20.0154 24.0183 26.3033C23.823 32.5913 25.2513 39.1449 26.0448 40.8529C26.7895 42.2952 35.4937 44.2309 44.4299 44.3448C53.3661 44.2309 62.0581 42.2952 62.815 40.8529C63.6085 39.1449 65.0368 32.5913 64.8415 26.3033H64.8293Z" fill="url(#paint0_radial_1_1079)"/>
<g style="mix-blend-mode:multiply" opacity="0.67">
<path d="M63.7184 16.9916C62.4244 18.5224 61.0327 19.9648 59.5434 21.3185C53.415 26.8979 45.7729 30.7567 37.4471 32.6039C33.7725 33.4263 28.1081 34.2233 24.2748 32.566C24.7021 36.4627 25.5078 39.7142 26.0327 40.8529C26.7774 42.2952 35.4816 44.2309 44.4178 44.3448C53.354 44.2309 62.046 42.2952 62.8029 40.8529C63.5964 39.1449 65.0247 32.5913 64.8294 26.3033C64.805 22.8747 64.3044 19.4966 63.7184 16.9916Z" fill="url(#paint1_linear_1_1079)"/>
</g>
<path d="M64.8293 28.7704C64.6584 34.198 63.4987 39.3094 62.8028 40.7896C62.0582 42.2319 53.3539 44.1677 44.4178 44.2815C35.4816 44.1677 26.7896 42.2319 26.0327 40.7896C25.3491 39.3094 24.1893 34.198 24.0184 28.7704C24.0184 28.821 24.0184 28.8716 24.0184 28.9222C23.8231 35.2102 25.2514 41.7638 26.0449 43.4718C26.7896 44.9141 35.4938 46.8498 44.43 46.9637C53.3661 46.8498 62.0582 44.9141 62.815 43.4718C63.6086 41.7638 65.0369 35.2102 64.8415 28.9222C64.8415 28.8716 64.8415 28.821 64.8415 28.7704H64.8293Z" fill="#114677"/>
<g style="mix-blend-mode:screen" opacity="0.84">
<path d="M62.2901 13.0442C61.3867 12.2725 53.0731 10.7416 44.4299 10.691C35.7745 10.7416 27.461 12.2725 26.5698 13.0442C25.6786 13.8792 24.0672 20.0154 24.0183 26.3033C23.8719 31.0098 24.6287 35.8807 25.3612 38.74C23.9939 22.7735 26.8384 14.8787 27.7173 14.0437C28.6207 13.2719 36.4216 12.0574 45.0525 11.4501C55.9908 10.6783 62.4121 13.1581 62.2901 13.0316V13.0442Z" fill="#144F86"/>
</g>
<path d="M62.4732 37.8291C62.3756 37.4875 62.1558 37.2218 61.7652 37.1459C61.4356 37.0826 60.9717 37.1838 60.8008 37.4875C60.5078 37.9809 60.1537 38.4237 59.6898 38.778C59.4335 38.9677 59.2137 39.1322 58.994 39.36C58.9818 39.3726 58.9696 39.3853 58.9574 39.3979C58.8231 39.4991 58.6888 39.5877 58.5423 39.6889C58.0174 40.0558 58.2005 40.9035 58.8109 41.0933C60.9473 41.7258 63.0836 39.8913 62.4854 37.8417L62.4732 37.8291Z" fill="#59D8FF"/>
<path d="M63.047 34.4384C62.9371 34.2739 62.7295 34.1601 62.522 34.2613C62.1436 34.4511 61.8994 34.78 61.8384 35.1722C61.7773 35.5771 61.936 36.1337 62.4732 36.1084C62.6075 36.1084 62.7051 35.9946 62.754 35.8934C62.7662 35.8681 62.7784 35.8427 62.7784 35.8174C63.2057 35.5012 63.3521 34.8812 63.047 34.4511V34.4384Z" fill="#59D8FF"/>
<path opacity="0.3" d="M28.0958 14.0816C27.9859 13.9045 27.8394 13.7907 27.6441 13.7907C26.1669 13.7527 24.8973 21.8499 25.6298 22.7608C26.3134 23.6211 26.9605 21.1034 27.1924 20.5341C27.7906 19.0538 28.3277 17.5356 28.4376 15.9415C28.462 15.5113 28.4132 14.5624 28.0958 14.0816Z" fill="white"/>
<path style="mix-blend-mode:screen" opacity="0.5" d="M63.8405 32.6292C64.2434 29.3397 64.0358 26.278 62.1192 26.278C60.4833 26.278 58.2371 28.9475 57.1628 29.8838C50.1799 35.9819 42.5622 41.1186 32.4907 40.6757C30.1223 40.5745 27.754 40.157 26.3501 38.1833C26.3501 38.8665 26.5576 39.613 26.8872 40.2329C27.6075 41.612 35.9089 43.4465 44.4422 43.5604C52.9755 43.4465 61.2768 41.5993 61.9971 40.2329C62.4976 39.2587 63.4743 35.8301 63.8649 32.6292H63.8405Z" fill="url(#paint2_radial_1_1079)"/>
<path d="M54.0498 21.989C54.4283 22.7228 54.9044 31.9966 54.0498 32.7937C53.1953 33.5907 43.5144 33.692 43.5144 33.692C43.5144 33.692 42.6354 36.2729 41.9762 36.0958C41.3292 35.9187 33.0156 28.3402 33.0156 27.1383C33.0156 25.9364 42.2204 17.9278 42.7697 18.1808C43.3191 18.4212 43.7708 21.1161 43.7708 21.1161C43.7708 21.1161 53.6592 21.2679 54.0498 21.989Z" fill="#114677"/>
<path d="M52.3163 22.9759C52.6337 23.5831 53.0243 31.2881 52.3163 31.9586C51.6082 32.6292 43.5632 32.7051 43.5632 32.7051C43.5632 32.7051 42.8308 34.8559 42.2814 34.7041C41.7443 34.5523 34.8346 28.2643 34.8346 27.2522C34.8346 26.24 42.4889 19.5978 42.9406 19.8003C43.3923 20.0027 43.5754 22.2294 43.5754 22.2294C43.5754 22.2294 51.9989 22.3559 52.3163 22.9632V22.9759Z" fill="white"/>
<g style="mix-blend-mode:screen" opacity="0.84">
<path d="M54.0498 32.7937C53.1952 33.5907 43.5144 33.6919 43.5144 33.6919C43.5144 33.6919 42.6354 36.2729 41.9762 36.0958C41.378 35.9313 32.9057 28.277 33.0156 27.0877C32.9301 27.2395 32.9423 27.6444 33.0156 27.8595C33.5405 29.5042 41.3292 36.6398 41.9762 36.8169C42.6232 36.9941 43.5144 34.4131 43.5144 34.4131C43.5144 34.4131 53.1952 34.3119 54.0498 33.5148C54.4282 33.1606 54.5381 31.1742 54.5259 28.9855C54.5137 30.8706 54.3794 32.4647 54.0498 32.781V32.7937Z" fill="white"/>
</g>
<path d="M121.689 26.3033C121.64 20.0154 120.016 13.8792 119.15 13.0442C118.246 12.2725 109.933 10.7416 101.29 10.691C92.6342 10.7416 84.3206 12.2725 83.4295 13.0442C82.5383 13.8792 80.9268 20.0154 80.878 26.3033C80.6827 32.5913 82.111 39.1449 82.9045 40.8529C83.6492 42.2952 92.3534 44.2309 101.29 44.3448C110.226 44.2309 118.918 42.2952 119.675 40.8529C120.468 39.1449 121.896 32.5913 121.701 26.3033H121.689Z" fill="url(#paint3_radial_1_1079)"/>
<g style="mix-blend-mode:multiply" opacity="0.67">
<path d="M120.578 16.9916C119.284 18.5224 117.892 19.9648 116.403 21.3185C110.275 26.8979 102.632 30.7567 94.3067 32.6039C90.6321 33.4263 84.9677 34.2233 81.1344 32.566C81.5617 36.4627 82.3674 39.7142 82.8923 40.8529C83.637 42.2952 92.3412 44.2309 101.277 44.3448C110.214 44.2309 118.906 42.2952 119.662 40.8529C120.456 39.1449 121.884 32.5913 121.689 26.3033C121.665 22.8747 121.164 19.4966 120.578 16.9916Z" fill="url(#paint4_linear_1_1079)"/>
</g>
<path d="M121.689 28.7704C121.518 34.198 120.358 39.3094 119.662 40.7896C118.918 42.2319 110.214 44.1677 101.277 44.2815C92.3412 44.1677 83.6492 42.2319 82.8923 40.7896C82.2087 39.3094 81.0489 34.198 80.878 28.7704C80.878 28.821 80.878 28.8716 80.878 28.9222C80.6827 35.2102 82.111 41.7638 82.9045 43.4718C83.6492 44.9141 92.3534 46.8498 101.29 46.9637C110.226 46.8498 118.918 44.9141 119.675 43.4718C120.468 41.7638 121.896 35.2102 121.701 28.9222C121.701 28.8716 121.701 28.821 121.701 28.7704H121.689Z" fill="#114677"/>
<g style="mix-blend-mode:screen" opacity="0.84">
<path d="M119.15 13.0442C118.246 12.2725 109.933 10.7416 101.29 10.691C92.6342 10.7416 84.3206 12.2725 83.4295 13.0442C82.5383 13.8792 80.9269 20.0154 80.878 26.3033C80.7315 31.0098 81.4884 35.8807 82.2209 38.74C80.8536 22.7735 83.698 14.8787 84.577 14.0437C85.4804 13.2719 93.2812 12.0574 101.912 11.4501C112.85 10.6783 119.272 13.1581 119.15 13.0316V13.0442Z" fill="#144F86"/>
</g>
<path d="M119.333 37.8291C119.235 37.4875 119.015 37.2218 118.625 37.1459C118.295 37.0826 117.831 37.1838 117.66 37.4875C117.367 37.9809 117.013 38.4237 116.549 38.778C116.293 38.9677 116.073 39.1322 115.854 39.36C115.841 39.3726 115.829 39.3853 115.817 39.3979C115.683 39.4991 115.548 39.5877 115.402 39.6889C114.877 40.0558 115.06 40.9035 115.67 41.0933C117.807 41.7258 119.943 39.8913 119.345 37.8417L119.333 37.8291Z" fill="#59D8FF"/>
<path d="M119.907 34.4384C119.797 34.2739 119.589 34.1601 119.382 34.2613C119.003 34.4511 118.759 34.78 118.698 35.1722C118.637 35.5771 118.796 36.1337 119.333 36.1084C119.467 36.1084 119.565 35.9946 119.614 35.8934C119.626 35.8681 119.638 35.8427 119.638 35.8174C120.065 35.5012 120.212 34.8812 119.907 34.4511V34.4384Z" fill="#59D8FF"/>
<path opacity="0.3" d="M84.9555 14.0816C84.8456 13.9045 84.6991 13.7907 84.5038 13.7907C83.0266 13.7527 81.757 21.8499 82.4895 22.7608C83.1731 23.6211 83.8201 21.1034 84.0521 20.5341C84.6503 19.0538 85.1874 17.5356 85.2973 15.9415C85.3217 15.5113 85.2729 14.5624 84.9555 14.0816Z" fill="white"/>
<path style="mix-blend-mode:screen" opacity="0.5" d="M120.7 32.6292C121.103 29.3397 120.895 26.278 118.979 26.278C117.343 26.278 115.097 28.9475 114.022 29.8838C107.04 35.9819 99.4218 41.1186 89.3503 40.6757C86.982 40.5745 84.6136 40.157 83.2097 38.1833C83.2097 38.8665 83.4173 39.613 83.7469 40.2329C84.4671 41.612 92.7685 43.4465 101.302 43.5604C109.835 43.4465 118.136 41.5993 118.857 40.2329C119.357 39.2587 120.334 35.8301 120.725 32.6292H120.7Z" fill="url(#paint5_radial_1_1079)"/>
<path d="M112.265 25.1367L112.264 25.1366C111.75 25.062 111.26 24.8723 110.829 24.5818C110.399 24.2912 110.039 23.9073 109.777 23.4586C109.516 23.0099 109.359 22.5079 109.318 21.9901C109.277 21.473 109.354 20.9534 109.542 20.4698M112.265 25.1367L109.906 20.6094M112.265 25.1367C112.481 25.1679 112.682 25.2664 112.839 25.4183C112.995 25.5702 113.101 25.7677 113.139 25.9827L113.139 25.9827L113.14 25.9867C113.265 26.6495 113.328 27.3226 113.328 27.9972C113.319 28.6369 113.253 29.2745 113.132 29.9028L113.132 29.9027L113.131 29.9106C113.093 30.1314 112.986 30.3344 112.825 30.4902C112.665 30.6452 112.459 30.7455 112.239 30.7767C111.711 30.8404 111.206 31.0255 110.762 31.3175C110.316 31.6103 109.945 32.0025 109.678 32.4633C109.41 32.924 109.254 33.4406 109.22 33.9723C109.186 34.5025 109.276 35.0333 109.482 35.5229C109.564 35.7293 109.578 35.9561 109.523 36.1711C109.467 36.3872 109.345 36.5803 109.173 36.7224L109.172 36.7234C108.265 37.4785 107.246 38.0874 106.152 38.528C105.937 38.6139 105.701 38.6264 105.478 38.5636L105.372 38.9395L112.265 25.1367ZM109.542 20.4698C109.542 20.4692 109.542 20.4685 109.542 20.4679L109.906 20.6094M109.542 20.4698C109.541 20.4703 109.541 20.4708 109.541 20.4713L109.906 20.6094M109.542 20.4698C109.618 20.2658 109.629 20.0429 109.574 19.8322C109.517 19.621 109.397 19.4326 109.228 19.2935L109.225 19.2914L109.225 19.2914C108.238 18.4624 107.115 17.8112 105.904 17.3667L105.903 17.3662C105.695 17.2889 105.468 17.2793 105.254 17.3386C105.04 17.3978 104.851 17.5227 104.713 17.6955M109.906 20.6094C110.012 20.3288 110.028 20.0219 109.951 19.7319C109.874 19.4419 109.708 19.1832 109.477 18.9922C108.455 18.1342 107.292 17.4601 106.039 17.0001C105.754 16.8941 105.443 16.8809 105.149 16.9622C104.856 17.0436 104.596 17.2154 104.406 17.4532M104.713 17.6955C104.713 17.695 104.714 17.6944 104.714 17.6938L104.406 17.4532M104.713 17.6955C104.712 17.696 104.712 17.6964 104.712 17.6969L104.406 17.4532M104.713 17.6955C104.391 18.1068 103.979 18.4395 103.51 18.6684C103.039 18.8976 102.523 19.0167 102 19.0167C101.477 19.0167 100.961 18.8976 100.49 18.6684C100.021 18.4395 99.6095 18.1068 99.2875 17.6955M104.406 17.4532C104.121 17.8185 103.755 18.114 103.339 18.3173C102.922 18.5205 102.464 18.6261 102 18.6261C101.536 18.6261 101.079 18.5205 100.662 18.3173C100.245 18.114 99.8795 17.8185 99.5938 17.4532M99.5938 17.4532L99.2886 17.6969C99.2882 17.6964 99.2878 17.696 99.2875 17.6955M99.5938 17.4532C99.404 17.2154 99.144 17.0436 98.8508 16.9622C98.5576 16.8809 98.2462 16.8941 97.961 17.0001L91.8017 25.0375C91.8027 25.0374 91.8038 25.0373 91.8048 25.0372M99.5938 17.4532L99.2861 17.6938C99.2866 17.6944 99.287 17.695 99.2875 17.6955M99.2875 17.6955C99.149 17.5227 98.9597 17.3978 98.7463 17.3386C98.5324 17.2793 98.3052 17.2889 98.097 17.3662L98.0957 17.3667C96.9782 17.7771 95.9334 18.3633 95.0006 19.103L95.0003 19.1032C94.8224 19.2441 94.6943 19.4382 94.6347 19.6571C94.5753 19.875 94.587 20.1061 94.6678 20.3169C94.8701 20.813 94.9536 21.3496 94.9117 21.8838C94.8696 22.4193 94.7026 22.9375 94.4241 23.3969C94.1456 23.8562 93.7633 24.2439 93.3079 24.5288C92.8533 24.8132 92.3386 24.9873 91.8048 25.0372M91.8048 25.0372C91.5811 25.0616 91.371 25.157 91.2054 25.3093L90.9409 25.0218L91.2054 25.3093C91.0391 25.4623 90.9263 25.6645 90.8837 25.8864L90.883 25.8899L90.883 25.8899C90.7426 26.5845 90.672 27.2914 90.672 28.0001V28.0007C90.6709 28.5943 90.7188 29.1869 90.8152 29.7726L90.8156 29.7749C90.8518 30.0038 90.9625 30.2144 91.1305 30.3742C91.2979 30.5334 91.513 30.6332 91.7426 30.6583C92.2882 30.71 92.8136 30.8913 93.2749 31.1873C93.737 31.4838 94.1213 31.8867 94.3958 32.3622C94.6702 32.8378 94.8268 33.3721 94.8523 33.9206C94.8778 34.469 94.7716 35.0156 94.5426 35.5146L94.5422 35.5154C94.4458 35.7241 94.4219 35.9589 94.4743 36.1827C94.5266 36.4065 94.6523 36.6064 94.8312 36.7506L94.8354 36.7541L94.8354 36.7541C95.816 37.5674 96.9279 38.2078 98.1234 38.6477C98.2403 38.6878 98.3628 38.7092 98.4864 38.711C98.6528 38.7102 98.8166 38.6697 98.9643 38.5929C99.1122 38.516 99.2395 38.405 99.3358 38.269C99.65 37.8119 100.071 37.4382 100.562 37.1804C101.054 36.9222 101.601 36.7879 102.157 36.7891C102.157 36.7891 102.157 36.7891 102.157 36.7891L91.8048 25.0372ZM105.573 30.3873C106.045 29.6807 106.297 28.8499 106.297 28.0001C106.297 26.8605 105.844 25.7675 105.038 24.9617C104.233 24.1559 103.14 23.7032 102 23.7032C101.15 23.7032 100.319 23.9552 99.6129 24.4273C98.9062 24.8995 98.3555 25.5706 98.0303 26.3557C97.7051 27.1409 97.62 28.0048 97.7858 28.8383C97.9516 29.6719 98.3608 30.4375 98.9617 31.0384C99.5627 31.6393 100.328 32.0486 101.162 32.2144C101.995 32.3802 102.859 32.2951 103.644 31.9699C104.43 31.6446 105.101 31.0939 105.573 30.3873Z" fill="white" stroke="#114677" stroke-width="0.78125"/>
<path d="M901.929 25.6124C901.816 19.3244 898.041 13.1883 896.026 12.3533C893.925 11.5815 874.596 10.0507 854.5 10.0001C834.376 10.0507 815.047 11.5815 812.975 12.3533C810.903 13.1883 807.156 19.3244 807.043 25.6124C806.588 31.9003 809.909 38.454 811.754 40.162C813.486 41.6043 833.723 43.54 854.5 43.6539C875.277 43.54 895.486 41.6043 897.246 40.162C899.091 38.454 902.412 31.9003 901.958 25.6124H901.929Z" fill="url(#paint6_radial_1_1079)"/>
<g style="mix-blend-mode:multiply" opacity="0.67">
<path d="M899.346 16.3007C896.338 17.8316 893.102 19.2739 889.639 20.6276C875.391 26.2071 857.622 30.0659 838.265 31.9131C829.721 32.7354 816.551 33.5325 807.639 31.8751C808.632 35.7719 810.505 39.0234 811.726 40.162C813.457 41.6043 833.695 43.5401 854.472 43.6539C875.249 43.5401 895.458 41.6043 897.218 40.162C899.063 38.454 902.383 31.9004 901.929 25.6125C901.873 22.1838 900.709 18.8058 899.346 16.3007Z" fill="url(#paint7_linear_1_1079)"/>
</g>
<path d="M901.929 28.0795C901.532 33.5072 898.836 38.6185 897.218 40.0987C895.486 41.541 875.249 43.4768 854.472 43.5906C833.695 43.4768 813.486 41.541 811.726 40.0987C810.136 38.6185 807.44 33.5072 807.043 28.0795C807.043 28.1301 807.043 28.1807 807.043 28.2313C806.588 34.5193 809.909 41.0729 811.754 42.7809C813.486 44.2232 833.723 46.159 854.5 46.2728C875.277 46.159 895.486 44.2232 897.246 42.7809C899.091 41.0729 902.412 34.5193 901.958 28.2313C901.958 28.1807 901.958 28.1301 901.958 28.0795H901.929Z" fill="#114677"/>
<g style="mix-blend-mode:screen" opacity="0.84">
<path d="M896.026 12.3533C893.925 11.5815 874.596 10.0507 854.5 10.0001C834.376 10.0507 815.047 11.5815 812.975 12.3533C810.903 13.1883 807.156 19.3244 807.043 25.6124C806.702 30.3189 808.462 35.1898 810.165 38.0491C806.986 22.0825 813.599 14.1878 815.643 13.3528C817.743 12.581 835.881 11.3665 855.948 10.7592C881.38 9.98741 896.31 12.4672 896.026 12.3406V12.3533Z" fill="#144F86"/>
</g>
<path d="M896.452 37.1381C896.225 36.7965 895.714 36.5308 894.805 36.4549C894.039 36.3917 892.96 36.4929 892.563 36.7965C891.882 37.29 891.059 37.7328 889.98 38.087C889.384 38.2768 888.873 38.4413 888.362 38.669C888.334 38.6817 888.305 38.6943 888.277 38.707C887.965 38.8082 887.653 38.8967 887.312 38.998C886.092 39.3649 886.517 40.2125 887.936 40.4023C892.904 41.0349 897.871 39.2004 896.48 37.1508L896.452 37.1381Z" fill="#59D8FF"/>
<path d="M897.786 33.7475C897.53 33.583 897.048 33.4692 896.565 33.5704C895.685 33.7602 895.118 34.0891 894.976 34.4813C894.834 34.8862 895.203 35.4429 896.452 35.4175C896.764 35.4175 896.991 35.3037 897.105 35.2025C897.133 35.1772 897.161 35.1519 897.161 35.1266C898.155 34.8103 898.495 34.1903 897.786 33.7602V33.7475Z" fill="#59D8FF"/>
<path opacity="0.3" d="M816.523 13.3907C816.267 13.2135 815.927 13.0997 815.473 13.0997C812.038 13.0617 809.086 21.1589 810.789 22.0698C812.379 22.9301 813.883 20.4124 814.422 19.8431C815.813 18.3628 817.062 16.8446 817.317 15.2505C817.374 14.8203 817.261 13.8714 816.523 13.3907Z" fill="white"/>
<path style="mix-blend-mode:screen" opacity="0.5" d="M899.631 31.9383C900.567 28.6488 900.085 25.5871 895.628 25.5871C891.825 25.5871 886.602 28.2566 884.105 29.1929C867.869 35.291 850.158 40.4277 826.741 39.9849C821.235 39.8836 815.728 39.4661 812.464 37.4924C812.464 38.1756 812.947 38.9221 813.713 39.542C815.388 40.9211 834.689 42.7556 854.529 42.8695C874.369 42.7556 893.67 40.9084 895.345 39.542C896.508 38.5679 898.779 35.1392 899.687 31.9383H899.631Z" fill="url(#paint8_radial_1_1079)"/>
<path d="M823.288 39.0272C822.648 38.7572 822.108 38.3472 821.658 37.7972L819.698 35.3972L816.618 35.6472C815.918 35.7072 815.238 35.5972 814.598 35.3272C813.438 34.8372 812.568 33.8572 812.188 32.6472C811.818 31.4572 811.998 30.1572 812.688 29.0972L814.368 26.4972L813.178 23.6372C812.548 22.1272 812.828 20.4272 813.898 19.1972C814.968 17.9672 816.618 17.4572 818.198 17.8772L821.188 18.6672L823.538 16.6472C824.778 15.5872 826.478 15.3172 827.978 15.9572C829.478 16.5972 830.468 18.0072 830.558 19.6372L830.728 22.7272L833.368 24.3372C834.758 25.1872 835.538 26.7272 835.398 28.3472C835.258 29.9772 834.218 31.3472 832.698 31.9472L829.818 33.0672L829.108 36.0772C828.818 37.3072 828.008 38.3272 826.898 38.8972C825.768 39.4672 824.448 39.5172 823.298 39.0272H823.288Z" fill="#1481D1"/>
<path style="mix-blend-mode:multiply" d="M823.758 37.9172C823.308 37.7272 822.908 37.4272 822.588 37.0372L820.228 34.1472L816.508 34.4472C815.998 34.4872 815.518 34.4072 815.058 34.2172C814.228 33.8672 813.598 33.1572 813.338 32.2872C813.068 31.4172 813.198 30.5172 813.698 29.7472L815.718 26.6072L814.278 23.1672C813.828 22.0872 814.028 20.8672 814.788 19.9872C815.558 19.1072 816.738 18.7472 817.868 19.0372L821.478 19.9872L824.308 17.5572C825.198 16.7972 826.418 16.6072 827.488 17.0672C828.568 17.5272 829.278 18.5372 829.338 19.6972L829.548 23.4272L832.738 25.3672C833.738 25.9772 834.298 27.0772 834.188 28.2372C834.088 29.3972 833.348 30.3872 832.258 30.8072L828.778 32.1572L827.918 35.7872C827.708 36.6772 827.148 37.3972 826.338 37.7972C825.528 38.2072 824.578 38.2472 823.758 37.8872V37.9172Z" fill="url(#paint9_radial_1_1079)"/>
<path style="mix-blend-mode:multiply" opacity="0.43" d="M834.198 28.2472C834.298 27.0872 833.748 25.9772 832.748 25.3772L829.558 23.4372L829.348 19.7072C829.278 18.5372 828.578 17.5272 827.498 17.0772C826.418 16.6172 825.198 16.8072 824.318 17.5672L821.488 19.9972L817.878 19.0472C816.748 18.7472 815.568 19.1072 814.798 19.9972C814.028 20.8772 813.838 22.0972 814.288 23.1772L815.178 25.3072C815.968 24.7872 816.838 24.3772 817.728 24.1172C820.518 23.2772 823.088 23.7572 825.538 25.2672C827.838 26.6872 829.618 28.9172 830.078 31.6172C830.078 31.6372 830.078 31.6572 830.078 31.6772L832.248 30.8372C833.338 30.4172 834.078 29.4272 834.178 28.2672L834.198 28.2472Z" fill="url(#paint10_radial_1_1079)"/>
<path style="mix-blend-mode:screen" opacity="0.5" d="M835.398 28.3572C835.538 26.7272 834.768 25.1972 833.368 24.3472L830.728 22.7372L830.558 19.6472C830.468 18.0172 829.478 16.6072 827.978 15.9672C826.478 15.3272 824.768 15.5972 823.538 16.6572L821.188 18.6772L818.198 17.8872C816.618 17.4672 814.968 17.9772 813.898 19.2072C812.828 20.4372 812.548 22.1372 813.178 23.6472L814.368 26.5072L812.688 29.1072C812.008 30.1672 811.828 31.4572 812.188 32.6572C812.558 33.8672 813.438 34.8472 814.598 35.3372C815.238 35.6072 815.918 35.7172 816.618 35.6572L819.698 35.4072L821.658 37.8072C822.108 38.3572 822.648 38.7672 823.288 39.0372C824.448 39.5272 825.758 39.4872 826.888 38.9072C827.998 38.3472 828.808 37.3172 829.098 36.0872L829.808 33.0772L832.688 31.9572C834.208 31.3672 835.248 29.9872 835.388 28.3572H835.398ZM829.378 32.6872L828.598 35.9672C828.348 37.0472 827.638 37.9472 826.658 38.4372C825.658 38.9372 824.508 38.9772 823.488 38.5472C822.928 38.3072 822.448 37.9472 822.058 37.4672L819.928 34.8572L816.568 35.1372C815.948 35.1872 815.358 35.0972 814.798 34.8572C813.778 34.4272 813.008 33.5672 812.688 32.4972C812.368 31.4472 812.528 30.3172 813.128 29.3872L814.948 26.5572L813.648 23.4472C813.098 22.1272 813.338 20.6272 814.278 19.5472C815.218 18.4672 816.668 18.0172 818.058 18.3872L821.318 19.2472L823.868 17.0472C824.958 16.1172 826.448 15.8772 827.768 16.4472C829.088 17.0072 829.958 18.2472 830.038 19.6772L830.228 23.0372L833.108 24.7872C834.328 25.5372 835.018 26.8872 834.888 28.3172C834.758 29.7472 833.848 30.9572 832.518 31.4772L829.378 32.6972V32.6872Z" fill="white"/>
<path d="M860.308 41.9901C859.438 41.9901 858.598 41.7801 857.818 41.3701L854.378 39.5601L850.938 41.3701C850.148 41.7801 849.318 41.9901 848.448 41.9901C846.868 41.9901 845.368 41.2901 844.338 40.0701C843.328 38.8701 842.898 37.2801 843.168 35.7201L843.828 31.8901L841.038 29.1701C839.568 27.7401 839.048 25.6301 839.678 23.6801C840.308 21.7301 841.968 20.3301 843.998 20.0401L847.848 19.4801L849.568 15.9901C850.478 14.1501 852.318 13.0001 854.368 13.0001C856.418 13.0001 858.258 14.1401 859.168 15.9901L860.888 19.4801L864.738 20.0401C866.768 20.3301 868.428 21.7301 869.058 23.6801C869.688 25.6301 869.178 27.7401 867.708 29.1701L864.918 31.8901L865.578 35.7201C865.848 37.2801 865.418 38.8701 864.408 40.0701C863.378 41.2901 861.878 41.9901 860.298 41.9901H860.308Z" fill="#1481D1"/>
<path style="mix-blend-mode:multiply" d="M860.308 40.4601C859.688 40.4601 859.088 40.3101 858.528 40.0101L854.378 37.8301L850.228 40.0101C849.668 40.3101 849.058 40.4601 848.448 40.4601C847.318 40.4601 846.248 39.9601 845.508 39.0801C844.778 38.2101 844.478 37.1101 844.678 35.9701L845.468 31.3501L842.108 28.0801C841.058 27.0501 840.688 25.5501 841.138 24.1501C841.588 22.7501 842.778 21.7501 844.238 21.5401L848.878 20.8701L850.958 16.6601C851.608 15.3401 852.928 14.5201 854.398 14.5201C855.868 14.5201 857.188 15.3401 857.838 16.6601L859.918 20.8701L864.558 21.5401C866.008 21.7501 867.198 22.7501 867.658 24.1501C868.108 25.5501 867.738 27.0501 866.688 28.0801L863.328 31.3501L864.118 35.9701C864.308 37.1101 864.018 38.2101 863.278 39.0801C862.538 39.9601 861.468 40.4601 860.338 40.4601H860.308Z" fill="url(#paint11_radial_1_1079)"/>
<path style="mix-blend-mode:multiply" opacity="0.43" d="M867.618 24.1501C867.168 22.7501 865.978 21.7501 864.518 21.5401L859.878 20.8701L857.798 16.6601C857.148 15.3401 855.828 14.5201 854.358 14.5201C852.888 14.5201 851.568 15.3401 850.918 16.6601L848.838 20.8701L844.198 21.5401C842.738 21.7501 841.558 22.7501 841.098 24.1501C840.638 25.5501 841.018 27.0501 842.068 28.0801L844.148 30.1101C844.808 29.1201 845.608 28.2201 846.508 27.4701C849.318 25.1301 852.528 24.4101 856.108 24.9501C859.468 25.4601 862.628 27.1601 864.488 30.0601C864.498 30.0801 864.508 30.1001 864.528 30.1201L866.628 28.0801C867.678 27.0501 868.048 25.5501 867.598 24.1501H867.618Z" fill="url(#paint12_radial_1_1079)"/>
<path style="mix-blend-mode:screen" opacity="0.5" d="M869.068 23.6801C868.438 21.7301 866.778 20.3301 864.748 20.0401L860.898 19.4801L859.178 15.9901C858.268 14.1501 856.428 13.0001 854.378 13.0001C852.328 13.0001 850.488 14.1401 849.578 15.9901L847.858 19.4801L844.008 20.0401C841.978 20.3301 840.318 21.7301 839.688 23.6801C839.058 25.6301 839.578 27.7401 841.048 29.1701L843.838 31.8901L843.178 35.7201C842.908 37.2801 843.338 38.8701 844.348 40.0701C845.378 41.2901 846.878 41.9901 848.458 41.9901C849.328 41.9901 850.168 41.7801 850.948 41.3701L854.388 39.5601L857.828 41.3701C858.618 41.7801 859.448 41.9901 860.318 41.9901C861.898 41.9901 863.398 41.2901 864.428 40.0701C865.438 38.8701 865.868 37.2801 865.598 35.7201L864.938 31.8901L867.728 29.1701C869.198 27.7401 869.718 25.6301 869.078 23.6801H869.068ZM864.228 31.6601L864.948 35.8301C865.178 37.2001 864.808 38.5901 863.918 39.6501C863.008 40.7201 861.698 41.3401 860.308 41.3401C859.548 41.3401 858.808 41.1501 858.118 40.7901L854.368 38.8201L850.618 40.7901C849.928 41.1501 849.188 41.3401 848.428 41.3401C847.038 41.3401 845.728 40.7201 844.818 39.6501C843.928 38.6001 843.558 37.2101 843.788 35.8301L844.508 31.6601L841.478 28.7001C840.188 27.4401 839.728 25.5901 840.288 23.8801C840.848 22.1701 842.298 20.9401 844.088 20.6801L848.278 20.0701L850.148 16.2701C850.948 14.6501 852.558 13.6501 854.368 13.6501C856.178 13.6501 857.788 14.6501 858.588 16.2701L860.458 20.0701L864.648 20.6801C866.428 20.9401 867.888 22.1701 868.448 23.8801C869.008 25.5901 868.548 27.4401 867.258 28.7001L864.228 31.6601Z" fill="white"/>
<path d="M884.635 39.0272C883.995 38.7572 883.455 38.3472 883.005 37.7972L881.045 35.3972L877.965 35.6472C877.265 35.7072 876.585 35.5972 875.945 35.3272C874.785 34.8372 873.915 33.8572 873.535 32.6472C873.165 31.4572 873.345 30.1572 874.035 29.0972L875.715 26.4972L874.525 23.6372C873.895 22.1272 874.175 20.4272 875.245 19.1972C876.315 17.9672 877.965 17.4572 879.545 17.8772L882.535 18.6672L884.885 16.6472C886.125 15.5872 887.825 15.3172 889.325 15.9572C890.825 16.5972 891.815 18.0072 891.905 19.6372L892.075 22.7272L894.715 24.3372C896.105 25.1872 896.885 26.7272 896.745 28.3472C896.605 29.9772 895.565 31.3472 894.045 31.9472L891.165 33.0672L890.455 36.0772C890.165 37.3072 889.355 38.3272 888.245 38.8972C887.115 39.4672 885.795 39.5172 884.645 39.0272H884.635Z" fill="#1481D1"/>
<path style="mix-blend-mode:multiply" d="M885.105 37.9172C884.655 37.7272 884.255 37.4272 883.935 37.0372L881.575 34.1472L877.855 34.4472C877.345 34.4872 876.865 34.4072 876.405 34.2172C875.575 33.8672 874.945 33.1572 874.685 32.2872C874.415 31.4172 874.545 30.5172 875.045 29.7472L877.065 26.6072L875.625 23.1672C875.175 22.0872 875.375 20.8672 876.135 19.9872C876.905 19.1072 878.085 18.7472 879.215 19.0372L882.825 19.9872L885.655 17.5572C886.545 16.7972 887.765 16.6072 888.835 17.0672C889.915 17.5272 890.625 18.5372 890.685 19.6972L890.895 23.4272L894.085 25.3672C895.085 25.9772 895.645 27.0772 895.535 28.2372C895.435 29.3972 894.695 30.3872 893.605 30.8072L890.125 32.1572L889.265 35.7872C889.055 36.6772 888.495 37.3972 887.685 37.7972C886.875 38.2072 885.925 38.2472 885.105 37.8872V37.9172Z" fill="url(#paint13_radial_1_1079)"/>
<path style="mix-blend-mode:multiply" opacity="0.43" d="M895.545 28.2472C895.645 27.0872 895.095 25.9772 894.095 25.3772L890.905 23.4372L890.695 19.7072C890.625 18.5372 889.925 17.5272 888.845 17.0772C887.765 16.6172 886.545 16.8072 885.665 17.5672L882.835 19.9972L879.225 19.0472C878.095 18.7472 876.915 19.1072 876.145 19.9972C875.375 20.8772 875.185 22.0972 875.635 23.1772L876.525 25.3072C877.315 24.7872 878.185 24.3772 879.075 24.1172C881.865 23.2772 884.435 23.7572 886.885 25.2672C889.185 26.6872 890.965 28.9172 891.425 31.6172C891.425 31.6372 891.425 31.6572 891.425 31.6772L893.595 30.8372C894.685 30.4172 895.425 29.4272 895.525 28.2672L895.545 28.2472Z" fill="url(#paint14_radial_1_1079)"/>
<path style="mix-blend-mode:screen" opacity="0.5" d="M896.745 28.3572C896.885 26.7272 896.115 25.1972 894.715 24.3472L892.075 22.7372L891.905 19.6472C891.815 18.0172 890.825 16.6072 889.325 15.9672C887.825 15.3272 886.115 15.5972 884.885 16.6572L882.535 18.6772L879.545 17.8872C877.965 17.4672 876.315 17.9772 875.245 19.2072C874.175 20.4372 873.895 22.1372 874.525 23.6472L875.715 26.5072L874.035 29.1072C873.355 30.1672 873.175 31.4572 873.535 32.6572C873.905 33.8672 874.785 34.8472 875.945 35.3372C876.585 35.6072 877.265 35.7172 877.965 35.6572L881.045 35.4072L883.005 37.8072C883.455 38.3572 883.995 38.7672 884.635 39.0372C885.795 39.5272 887.105 39.4872 888.235 38.9072C889.345 38.3472 890.155 37.3172 890.445 36.0872L891.155 33.0772L894.035 31.9572C895.555 31.3672 896.595 29.9872 896.735 28.3572H896.745ZM890.725 32.6872L889.945 35.9672C889.695 37.0472 888.985 37.9472 888.005 38.4372C887.005 38.9372 885.855 38.9772 884.835 38.5472C884.275 38.3072 883.795 37.9472 883.405 37.4672L881.275 34.8572L877.915 35.1372C877.295 35.1872 876.705 35.0972 876.145 34.8572C875.125 34.4272 874.355 33.5672 874.035 32.4972C873.715 31.4472 873.875 30.3172 874.475 29.3872L876.295 26.5572L874.995 23.4472C874.445 22.1272 874.685 20.6272 875.625 19.5472C876.565 18.4672 878.015 18.0172 879.405 18.3872L882.665 19.2472L885.215 17.0472C886.305 16.1172 887.795 15.8772 889.115 16.4472C890.435 17.0072 891.305 18.2472 891.385 19.6772L891.575 23.0372L894.455 24.7872C895.675 25.5372 896.365 26.8872 896.235 28.3172C896.105 29.7472 895.195 30.9572 893.865 31.4772L890.725 32.6972V32.6872Z" fill="white"/>
</g>
<defs>
<filter id="filter0_d_1_1079" x="-24" y="-19.9999" width="974" height="105" filterUnits="userSpaceOnUse" color-interpolation-filters="sRGB">
<feFlood flood-opacity="0" result="BackgroundImageFix"/>
<feColorMatrix in="SourceAlpha" type="matrix" values="0 0 0 0 0 0 0 0 0 0 0 0 0 0 0 0 0 0 127 0" result="hardAlpha"/>
<feOffset dy="4"/>
<feGaussianBlur stdDeviation="12"/>
<feComposite in2="hardAlpha" operator="out"/>
<feColorMatrix type="matrix" values="0 0 0 0 0 0 0 0 0 0 0 0 0 0 0 0 0 0 0.1 0"/>
<feBlend mode="normal" in2="BackgroundImageFix" result="effect1_dropShadow_1_1079"/>
<feBlend mode="normal" in="SourceGraphic" in2="effect1_dropShadow_1_1079" result="shape"/>
</filter>
<radialGradient id="paint0_radial_1_1079" cx="0" cy="0" r="1" gradientUnits="userSpaceOnUse" gradientTransform="translate(44.5758 50.6873) scale(38.8169 36.0812)">
<stop stop-color="#0055F3"/>
<stop offset="0.13" stop-color="#0160F3"/>
<stop offset="0.37" stop-color="#057FF6"/>
<stop offset="0.69" stop-color="#0CB1FA"/>
<stop offset="1" stop-color="#114677"/>
</radialGradient>
<linearGradient id="paint1_linear_1_1079" x1="44.5611" y1="42.2446" x2="44.5611" y2="17.2684" gradientUnits="userSpaceOnUse">
<stop stop-color="#7ED6DF"/>
<stop offset="0.27" stop-color="#78BDDF"/>
<stop offset="0.43" stop-color="#114677"/>
<stop offset="1" stop-color="#114677"/>
</linearGradient>
<radialGradient id="paint2_radial_1_1079" cx="0" cy="0" r="1" gradientUnits="userSpaceOnUse" gradientTransform="translate(31.7277 36.7963) scale(36.4723 33.9018)">
<stop stop-color="#004DCD"/>
<stop offset="0.2" stop-color="#0258D3"/>
<stop offset="0.56" stop-color="#0977E4"/>
<stop offset="1" stop-color="#14A6FF"/>
</radialGradient>
<radialGradient id="paint3_radial_1_1079" cx="0" cy="0" r="1" gradientUnits="userSpaceOnUse" gradientTransform="translate(101.435 50.6873) scale(38.8169 36.0812)">
<stop stop-color="#0055F3"/>
<stop offset="0.13" stop-color="#0160F3"/>
<stop offset="0.37" stop-color="#057FF6"/>
<stop offset="0.69" stop-color="#0CB1FA"/>
<stop offset="1" stop-color="#114677"/>
</radialGradient>
<linearGradient id="paint4_linear_1_1079" x1="101.421" y1="42.2446" x2="101.421" y2="17.2684" gradientUnits="userSpaceOnUse">
<stop stop-color="#7ED6DF"/>
<stop offset="0.27" stop-color="#78BDDF"/>
<stop offset="0.43" stop-color="#114677"/>
<stop offset="1" stop-color="#114677"/>
</linearGradient>
<radialGradient id="paint5_radial_1_1079" cx="0" cy="0" r="1" gradientUnits="userSpaceOnUse" gradientTransform="translate(88.5873 36.7963) scale(36.4723 33.9018)">
<stop stop-color="#004DCD"/>
<stop offset="0.2" stop-color="#0258D3"/>
<stop offset="0.56" stop-color="#0977E4"/>
<stop offset="1" stop-color="#14A6FF"/>
</radialGradient>
<radialGradient id="paint6_radial_1_1079" cx="0" cy="0" r="1" gradientUnits="userSpaceOnUse" gradientTransform="translate(854.839 49.9963) scale(90.2507 36.0812)">
<stop stop-color="#0055F3"/>
<stop offset="0.13" stop-color="#0160F3"/>
<stop offset="0.37" stop-color="#057FF6"/>
<stop offset="0.69" stop-color="#0CB1FA"/>
<stop offset="1" stop-color="#114677"/>
</radialGradient>
<linearGradient id="paint7_linear_1_1079" x1="854.805" y1="41.5537" x2="854.805" y2="16.5775" gradientUnits="userSpaceOnUse">
<stop stop-color="#7ED6DF"/>
<stop offset="0.27" stop-color="#78BDDF"/>
<stop offset="0.43" stop-color="#114677"/>
<stop offset="1" stop-color="#114677"/>
</linearGradient>
<radialGradient id="paint8_radial_1_1079" cx="0" cy="0" r="1" gradientUnits="userSpaceOnUse" gradientTransform="translate(824.967 36.1054) scale(84.7993 33.9018)">
<stop stop-color="#004DCD"/>
<stop offset="0.2" stop-color="#0258D3"/>
<stop offset="0.56" stop-color="#0977E4"/>
<stop offset="1" stop-color="#14A6FF"/>
</radialGradient>
<radialGradient id="paint9_radial_1_1079" cx="0" cy="0" r="1" gradientUnits="userSpaceOnUse" gradientTransform="translate(822.962 27.4047) rotate(23.05) scale(10.5536)">
<stop stop-color="#004156"/>
<stop offset="0.38" stop-color="#054A61"/>
<stop offset="1" stop-color="#14637E"/>
</radialGradient>
<radialGradient id="paint10_radial_1_1079" cx="0" cy="0" r="1" gradientUnits="userSpaceOnUse" gradientTransform="translate(822.962 27.4047) rotate(23.05) scale(10.5536 10.5536)">
<stop stop-color="#004156"/>
<stop offset="0.38" stop-color="#054A61"/>
<stop offset="1" stop-color="#14637E"/>
</radialGradient>
<radialGradient id="paint11_radial_1_1079" cx="0" cy="0" r="1" gradientUnits="userSpaceOnUse" gradientTransform="translate(854.731 27.8886) scale(13.2696)">
<stop stop-color="#004156"/>
<stop offset="0.38" stop-color="#054A61"/>
<stop offset="1" stop-color="#14637E"/>
</radialGradient>
<radialGradient id="paint12_radial_1_1079" cx="0" cy="0" r="1" gradientUnits="userSpaceOnUse" gradientTransform="translate(775.133 27.8886) scale(13.2696 13.2696)">
<stop stop-color="#004156"/>
<stop offset="0.38" stop-color="#054A61"/>
<stop offset="1" stop-color="#14637E"/>
</radialGradient>
<radialGradient id="paint13_radial_1_1079" cx="0" cy="0" r="1" gradientUnits="userSpaceOnUse" gradientTransform="translate(884.309 27.4047) rotate(23.05) scale(10.5536)">
<stop stop-color="#004156"/>
<stop offset="0.38" stop-color="#054A61"/>
<stop offset="1" stop-color="#14637E"/>
</radialGradient>
<radialGradient id="paint14_radial_1_1079" cx="0" cy="0" r="1" gradientUnits="userSpaceOnUse" gradientTransform="translate(884.309 27.4047) rotate(23.05) scale(10.5536 10.5536)">
<stop stop-color="#004156"/>
<stop offset="0.38" stop-color="#054A61"/>
<stop offset="1" stop-color="#14637E"/>
</radialGradient>
</defs>
</svg>
